ply
format ascii 1.0
comment Created by Blender 2.79 (sub 0) - www.blender.org, source file: ''
element vertex 542
property float x
property float y
property float z
property float nx
property float ny
property float nz
element face 950
property list uchar uint vertex_indices
end_header
-0.579749 -2.751737 1.093449 0.707266 -0.022828 -0.706565
-1.174828 -2.778846 0.498650 -0.634175 -0.034272 -0.772423
-1.192905 -0.046372 0.392201 -0.634144 -0.034272 -0.772423
-0.597826 -0.019264 0.987000 0.707266 -0.022828 -0.706565
-1.205189 -2.781901 0.425376 0.097842 0.039369 0.994415
-1.197299 -2.780304 0.465032 -0.923917 0.008759 0.382427
-1.215376 -0.047831 0.358582 -0.923917 0.008759 0.382458
-1.223266 -0.049428 0.318926 0.097812 0.039369 0.994415
-1.204953 -2.817579 -0.490470 0.098331 -0.038087 -0.994415
-1.223030 -0.085105 -0.596919 0.098331 -0.038087 -0.994415
-1.174555 -2.820232 -0.563744 -0.634571 0.025880 0.772423
-1.197043 -2.819071 -0.530125 -0.923704 -0.020997 -0.382427
-1.215120 -0.086598 -0.636575 -0.923704 -0.020997 -0.382427
-1.192632 -0.087759 -0.670193 -0.634541 0.025880 0.772423
-0.579168 -2.839465 -1.158543 0.706900 0.032197 0.706565
-0.597245 -0.106991 -1.264992 0.706900 0.032197 0.706565
-0.489373 4.263741 0.129968 -0.539293 -0.621784 0.567888
0.385151 4.235492 -0.743689 0.547746 -0.656880 -0.518082
0.384927 4.269526 0.129967 0.547472 -0.614582 0.567888
-0.489147 4.229708 -0.743688 -0.539018 -0.664083 -0.518082
0.566112 4.253706 -0.306861 0.772698 -0.634236 0.024903
-0.052270 4.273682 0.310908 0.004028 -0.609424 0.792810
-0.670333 4.245526 -0.306860 -0.764244 -0.644429 0.024903
-0.051951 4.225551 -0.924628 0.004425 -0.669240 -0.743004
0.184620 4.228948 -0.877603 0.298471 -0.665029 -0.684530
0.519114 4.244185 -0.543270 0.714286 -0.646077 -0.268960
0.518992 4.262605 -0.070451 0.714133 -0.623188 0.318766
0.184325 4.273416 0.263883 0.298135 -0.609729 0.734367
-0.288842 4.270285 0.263882 -0.290017 -0.613636 0.734367
-0.623335 4.255047 -0.070451 -0.705832 -0.632588 0.318766
-0.623213 4.236629 -0.543271 -0.705679 -0.655477 -0.268960
-0.288547 4.225818 -0.877603 -0.289651 -0.668905 -0.684530
-0.302900 3.224488 -0.889283 -0.287881 -0.674184 -0.680105
-0.045327 3.224197 -0.940478 0.004456 -0.674520 -0.738212
-0.521288 3.228722 -0.743493 -0.535752 -0.669393 -0.514634
-0.667240 3.236257 -0.525306 -0.701407 -0.660848 -0.266976
-0.718539 3.245944 -0.267934 -0.759636 -0.649831 0.025117
-0.667374 3.256309 -0.010562 -0.701559 -0.638081 0.317209
-0.521533 3.265774 0.207626 -0.536027 -0.627338 0.564867
-0.303222 3.272897 0.353416 -0.288247 -0.619251 0.730338
-0.045673 3.276596 0.404609 0.004059 -0.615040 0.788446
0.211900 3.276305 0.353416 0.296396 -0.615375 0.730338
0.430288 3.272071 0.207626 0.544267 -0.620197 0.564867
0.576240 3.264536 -0.010562 0.709922 -0.628742 0.317209
0.627538 3.254849 -0.267934 0.768151 -0.639729 0.025117
0.576375 3.244484 -0.525305 0.710074 -0.651509 -0.266976
0.430533 3.235019 -0.743493 0.544542 -0.662252 -0.514634
0.212221 3.227895 -0.889283 0.296762 -0.670339 -0.680105
-0.589943 0.428363 0.934217 -0.569231 0.158055 0.806818
-1.118225 0.404297 0.406186 -0.813868 0.145817 0.562426
-1.142839 -2.966110 0.490531 -0.810633 0.017426 0.585253
-0.520763 -2.937771 1.112310 -0.585894 0.027650 0.809870
-0.830040 -3.218154 0.811791 -0.689505 -0.173101 0.703238
-1.164159 0.256554 0.364985 -0.797174 0.018220 0.603442
-0.855620 0.648469 0.661158 -0.696188 0.189642 0.692312
-0.542083 0.284893 0.986764 -0.604083 0.027009 0.796442
1.112671 0.271617 0.364985 0.796869 0.028779 0.603442
0.798974 0.659415 0.661158 0.698050 0.198675 0.687887
0.490274 0.291722 0.986764 0.603687 0.035005 0.796442
0.824554 -3.207202 0.811791 0.697256 -0.164159 0.697745
0.511594 -2.930942 1.112310 0.585498 0.035401 0.809870
0.536234 0.435823 0.934217 0.624775 0.083712 0.776269
1.064787 0.418739 0.406186 0.811457 0.157689 0.562700
1.133991 -2.951047 0.490531 0.810327 0.028138 0.585284
0.536788 0.350815 -1.247197 0.625172 0.023072 -0.780114
1.065087 0.374891 -0.719154 0.778619 0.030061 -0.626759
1.134257 -2.991233 -0.541066 0.810633 -0.017426 -0.585253
0.512180 -3.019571 -1.162844 0.585894 -0.027650 -0.809870
0.824979 -3.271612 -0.841584 0.692099 -0.218177 -0.688009
1.112937 0.231431 -0.666612 0.797204 -0.018220 -0.603412
0.799400 0.595007 -0.992217 0.693991 0.144383 -0.705313
0.490860 0.203093 -1.288390 0.604083 -0.027009 -0.796442
-1.163893 0.216368 -0.666612 -0.796869 -0.028748 -0.603442
-0.855194 0.584060 -0.992217 -0.700247 0.135350 -0.700919
-0.541496 0.196263 -1.288390 -0.603687 -0.035005 -0.796442
-0.829613 -3.282560 -0.841584 -0.694662 -0.227119 -0.682485
-0.520176 -3.026401 -1.162844 -0.585498 -0.035401 -0.809870
-0.589386 0.343405 -1.247179 -0.625446 0.014832 -0.780114
-1.117925 0.360479 -0.719164 -0.778924 0.019776 -0.626789
-1.142573 -3.006296 -0.541066 -0.810327 -0.028138 -0.585253
-0.465895 0.286376 1.018310 -0.356548 0.183355 0.916105
-0.496874 0.430660 0.977374 -0.376598 0.230781 0.897153
-0.504250 0.285532 1.003171 -0.382336 0.107089 0.917783
-0.400515 0.432681 1.012627 -0.109073 0.087191 0.990173
-0.542081 0.284643 0.986774 -0.402326 0.182287 0.897153
-1.164157 0.256305 0.364994 -0.904721 0.159368 0.395001
-1.161400 0.400388 0.313176 -0.912809 0.225196 0.340648
-1.180557 0.254723 0.327187 -0.922666 0.085025 0.376049
-1.196645 0.396414 0.216884 -0.954924 0.232795 0.184088
-1.195697 0.253130 0.288857 -0.918546 0.172552 0.355632
-1.195470 0.218876 -0.590465 -0.923521 0.129795 -0.360881
-1.161158 0.363796 -0.626148 -0.906735 0.177374 -0.382519
-1.180311 0.217483 -0.628795 -0.921720 0.052767 -0.384198
-1.196452 0.367324 -0.529857 -0.977081 0.117008 -0.177679
-1.163891 0.216118 -0.666602 -0.904508 0.128147 -0.406690
-0.541495 0.196013 -1.288381 -0.401898 0.111911 -0.908780
-0.496291 0.342319 -1.290355 -0.350597 0.179846 -0.919065
-0.503656 0.195625 -1.304778 -0.379589 0.037965 -0.924345
-0.399922 0.341594 -1.325599 -0.109989 0.008698 -0.993866
-0.465299 0.195289 -1.319916 -0.363201 0.126438 -0.923063
0.414684 0.201110 -1.319916 0.354595 0.116153 -0.927763
0.443727 0.348538 -1.290355 0.374004 0.165227 -0.912564
0.453031 0.201954 -1.304778 0.381390 0.040376 -0.923521
0.347377 0.346538 -1.325599 0.172124 0.093326 -0.980621
0.490862 0.202843 -1.288381 0.400372 0.117191 -0.908811
1.112939 0.231181 -0.666602 0.902768 0.140080 -0.406659
1.108252 0.378810 -0.626148 0.909940 0.210059 -0.357585
1.129339 0.232763 -0.628795 0.921659 0.067690 -0.382000
1.143496 0.382794 -0.529860 0.951872 0.230323 -0.202124
1.144479 0.234356 -0.590469 0.916349 0.156499 -0.368480
1.144252 0.268610 0.288861 0.921537 0.169652 0.349223
1.108010 0.415402 0.313176 0.904111 0.218574 0.367077
1.129092 0.270003 0.327187 0.920743 0.094668 0.378460
1.143304 0.411894 0.216884 0.992492 0.060030 0.106479
1.112673 0.271368 0.364994 0.902554 0.171331 0.395001
0.490275 0.291473 0.986774 0.399853 0.187597 0.897153
0.443142 0.436878 0.977374 0.347667 0.255440 0.902127
0.452436 0.291861 1.003171 0.378552 0.114780 0.918393
0.346765 0.437624 1.012627 0.109378 0.087466 0.990143
0.414074 0.292197 1.018310 0.360973 0.202643 0.910276
-0.028411 0.667271 1.003585 0.011536 0.210303 0.977538
-0.360972 1.937800 0.566273 -0.376843 0.227607 0.897855
-0.400521 0.432670 1.012628 -0.265175 0.280526 0.922452
-0.036847 1.942455 0.630702 -0.001526 0.231971 0.972686
-0.635718 1.928835 0.382797 -0.693655 0.218390 0.686361
-0.819258 1.916923 0.108206 -0.907895 0.204749 0.365764
-1.198084 0.613998 -0.165529 -0.986114 0.165868 0.006226
-0.883651 1.903879 -0.215696 -0.982269 0.187323 -0.007538
-0.819092 1.891688 -0.539599 -0.907315 0.174230 -0.382641
-1.117935 0.360459 -0.719158 -0.847224 0.221931 -0.482620
-0.635410 1.882206 -0.814190 -0.695608 0.164403 -0.699301
-0.360568 1.876876 -0.997666 -0.374737 0.158452 -0.913480
-0.589381 0.343385 -1.247188 -0.474166 0.207190 -0.855678
-0.027808 0.576195 -1.334642 -0.013794 0.133457 -0.990936
-0.399927 0.341584 -1.325599 -0.303781 0.449477 -0.840022
-0.036411 1.876511 -1.062095 -0.001007 0.155614 -0.987793
0.287713 1.881165 -0.997668 0.374248 0.162053 -0.913022
0.536795 0.350835 -1.247188 0.471969 0.216163 -0.854671
0.562460 1.890130 -0.814190 0.691061 0.173498 -0.701621
0.746000 1.902042 -0.539599 0.905301 0.187658 -0.381054
1.065077 0.374901 -0.719158 0.845332 0.230506 -0.481918
1.141865 0.629478 -0.165529 0.983825 0.177892 -0.019593
0.810392 1.915087 -0.215696 0.979675 0.200293 -0.007538
0.745833 1.927277 0.108206 0.904721 0.215430 0.367443
1.143304 0.411884 0.216888 0.931059 0.262368 0.253487
0.562151 1.936760 0.382797 0.693014 0.227485 0.684042
0.287311 1.942089 0.566273 0.372143 0.233955 0.898190
0.536231 0.435813 0.934217 0.470901 0.279397 0.836756
0.346770 0.437614 1.012628 0.297433 0.517502 0.802301
-0.295023 3.296289 0.332325 -0.381726 0.130558 0.914975
-0.045827 3.299867 0.381860 -0.000885 0.136021 0.990692
-0.506255 3.289396 0.191264 -0.704550 0.120029 0.699423
-0.647367 3.280238 -0.019849 -0.920194 0.106021 0.376782
-0.696872 3.270209 -0.268874 -0.995849 0.090701 -0.003784
-0.647238 3.260836 -0.517900 -0.920011 0.076388 -0.384350
-0.506018 3.253546 -0.729013 -0.704184 0.065218 -0.706992
-0.294713 3.249449 -0.870074 -0.381237 0.058962 -0.922575
-0.045492 3.249158 -0.919608 -0.000366 0.058535 -0.998260
0.203704 3.252736 -0.870073 0.380444 0.063997 -0.922575
0.414937 3.259629 -0.729012 0.703238 0.074557 -0.706992
0.556048 3.268787 -0.517900 0.918912 0.088534 -0.384350
0.605554 3.278816 -0.268874 0.994568 0.103854 -0.003784
0.555920 3.288188 -0.019848 0.918699 0.118198 0.376782
0.414700 3.295479 0.191265 0.702902 0.129337 0.699423
0.203395 3.299576 0.332326 0.379955 0.135594 0.914975
-0.281966 4.285983 0.246410 -0.284341 -0.631214 0.721580
-0.052373 4.289280 0.292049 -0.000580 0.090396 0.995880
-0.476582 4.279633 0.116446 -0.706656 0.074313 0.703604
-0.606594 4.271194 -0.078060 -0.692251 -0.649770 0.313883
-0.652205 4.261955 -0.307497 -0.749565 -0.661397 0.025544
-0.606475 4.253319 -0.536933 -0.692099 -0.672231 -0.262734
-0.476364 4.246603 -0.731440 -0.706290 0.019349 -0.707633
-0.281681 4.242827 -0.861405 -0.283975 -0.685415 -0.670431
-0.052064 4.242569 -0.907042 0.004517 -0.685751 -0.727775
0.177529 4.245866 -0.861405 0.293008 -0.681631 -0.670431
0.372146 4.252216 -0.731440 0.705985 0.028687 -0.707633
0.502157 4.260653 -0.536933 0.922361 0.042726 -0.383862
0.547769 4.269894 -0.307497 0.998291 0.058107 -0.001984
0.502038 4.278529 -0.078060 0.922178 0.072481 0.379864
0.371928 4.285246 0.116446 0.705618 0.083651 0.703604
0.177245 4.289021 0.246410 0.381573 0.089938 0.919919
-1.174379 -2.969284 0.414397 -0.987304 -0.000336 0.158818
-1.195698 0.253380 0.288851 -0.990631 -0.001221 0.136448
-1.159240 -2.967445 0.452714 -0.919675 -0.160558 0.358318
-0.482934 -2.936636 1.128698 -0.377880 -0.111515 0.919095
-0.465896 0.286625 1.018300 -0.136784 0.037629 0.989868
-0.444577 -2.936038 1.143846 -0.159185 0.037355 0.986511
0.435391 -2.930216 1.143846 0.158666 0.039460 0.986511
0.414072 0.292447 1.018300 0.136296 0.039460 0.989868
0.473753 -2.930307 1.128698 0.352886 -0.130009 0.926572
1.150409 -2.952166 0.452716 0.914975 -0.123814 0.383984
1.144250 0.268860 0.288851 0.990570 0.011841 0.136448
1.165570 -2.953805 0.414394 0.987213 0.012696 0.158788
1.165797 -2.988058 -0.464929 0.987304 0.000336 -0.158788
1.144477 0.234605 -0.590479 0.990631 0.001221 -0.136448
1.150656 -2.989407 -0.503268 0.921903 -0.175787 -0.345195
0.474349 -3.020215 -1.179251 0.379833 -0.177679 -0.907804
0.414681 0.201360 -1.319926 0.136814 -0.037629 -0.989868
0.436001 -3.021304 -1.194380 0.159185 -0.037355 -0.986511
-0.443981 -3.027126 -1.194380 -0.158696 -0.039460 -0.986511
-0.465301 0.195538 -1.319926 -0.136296 -0.039460 -0.989868
-0.482339 -3.026544 -1.179251 -0.350688 -0.206336 -0.913450
-1.158994 -3.004686 -0.503268 -0.913053 -0.165380 -0.372723
-1.195472 0.219125 -0.590479 -0.990570 -0.011841 -0.136448
-1.174152 -3.003539 -0.464933 -0.987213 -0.012696 -0.158818
1.167445 -3.237140 -0.014897 0.981536 -0.191107 0.005219
1.165569 -2.953558 0.414384 0.915494 -0.274392 0.294137
1.015152 -3.454927 0.414819 0.593616 -0.756767 0.273598
1.098989 -3.470760 -0.005814 0.645894 -0.762810 0.029878
1.133990 -2.950800 0.490521 0.847987 -0.268502 0.456954
0.776612 -3.442614 0.771413 0.458846 -0.747703 0.479934
0.419693 -3.435693 1.009687 0.246376 -0.744591 0.620350
0.511592 -2.930695 1.112301 0.446974 -0.253883 0.857723
-0.002832 -3.199332 1.154217 0.003479 -0.159307 0.987213
0.435391 -2.929970 1.143836 0.317331 -0.484848 0.814966
-0.001271 -3.435218 1.093353 0.004883 -0.742119 0.670247
-0.444579 -2.935791 1.143836 -0.281289 -0.257759 0.924314
-0.422192 -3.441262 1.009687 -0.238838 -0.748863 0.618152
-0.520763 -2.937526 1.112301 -0.444197 -0.261452 0.856899
-0.778989 -3.452905 0.771413 -0.445357 -0.753563 0.483474
-1.017343 -3.468374 0.414819 -0.585803 -0.763695 0.271249
-1.142841 -2.965864 0.490521 -0.845271 -0.278085 0.456252
-1.172504 -3.252622 -0.014897 -0.978912 -0.203864 0.010132
-1.174380 -2.969037 0.414388 -0.791986 -0.510971 0.334086
-1.100963 -3.485314 -0.005814 -0.635731 -0.771294 0.029878
-1.174153 -3.003292 -0.464942 -0.911649 -0.308512 -0.271462
-1.017127 -3.501146 -0.426446 -0.583422 -0.783532 -0.213599
-1.142575 -3.006049 -0.541075 -0.844142 -0.314402 -0.434217
-0.778587 -3.513459 -0.783041 -0.448683 -0.788781 -0.420087
-0.421668 -3.520381 -1.021313 -0.236213 -0.793786 -0.560411
-0.520178 -3.026154 -1.162854 -0.443129 -0.325724 -0.835139
-0.002229 -3.290429 -1.184009 -0.000885 -0.235664 -0.971831
-0.443983 -3.026879 -1.194390 -0.310495 -0.550981 -0.774560
-0.000704 -3.520855 -1.104979 0.005219 -0.792016 -0.610462
0.435999 -3.021058 -1.194390 0.285195 -0.325144 -0.901608
0.420216 -3.514811 -1.021313 0.249031 -0.791467 -0.558153
0.512178 -3.019325 -1.162854 0.448042 -0.321451 -0.834193
0.777013 -3.503168 -0.783041 0.455519 -0.782922 -0.423627
1.015369 -3.487700 -0.426446 0.595965 -0.774682 -0.211310
1.134256 -2.990987 -0.541075 0.849086 -0.301553 -0.433668
1.165795 -2.987813 -0.464938 0.798883 -0.524857 -0.293710
-0.463456 4.906162 -0.501254 0.250404 0.965667 0.068880
-0.518396 4.904913 -0.523996 -0.108310 0.990814 -0.080782
-0.497032 4.912502 -0.332799 0.271615 0.961669 -0.037385
-0.367927 4.901231 -0.644062 0.190130 0.968780 0.158971
-0.247734 4.896170 -0.794388 -0.048677 0.988891 -0.140355
-0.518494 4.919809 -0.141603 -0.108310 0.994079 0.003418
-0.463543 4.919287 -0.164344 0.250465 0.957396 -0.143681
-0.368088 4.925482 -0.021537 0.190222 0.953490 -0.233772
-0.224989 4.898458 -0.739483 0.099948 0.970519 0.219214
-0.056402 4.898269 -0.772993 -0.006409 0.970641 0.240333
-0.247972 4.932133 0.128789 -0.048738 0.996796 0.062960
-0.225198 4.930144 0.073884 0.100070 0.950530 -0.293985
-0.056629 4.932565 0.107392 -0.006256 0.949004 -0.315134
0.134704 4.934664 0.128789 0.035524 0.997375 0.062960
0.111958 4.932375 0.073884 -0.112644 0.949126 -0.293985
0.254897 4.929603 -0.021537 -0.202826 0.950865 -0.233772
0.134940 4.898701 -0.794388 0.035585 0.989441 -0.140355
-0.056387 4.895954 -0.832421 -0.006531 0.988830 -0.148717
-0.409971 4.899315 -0.686085 -0.084414 0.989593 -0.116489
-0.556504 4.912109 -0.332799 -0.116703 0.992401 -0.038667
-0.410153 4.926840 0.020486 -0.084445 0.995636 0.039125
-0.056644 4.934879 0.166821 -0.006592 0.997406 0.071352
0.296939 4.931518 0.020486 0.071261 0.996673 0.039125
0.405364 4.925920 -0.141603 0.095157 0.995453 0.003418
0.350424 4.924671 -0.164344 -0.263100 0.953978 -0.143681
0.443474 4.918724 -0.332799 0.103549 0.993866 -0.038667
0.384001 4.918331 -0.332799 -0.284280 0.957976 -0.037385
0.405463 4.911024 -0.523996 0.095157 0.992157 -0.080782
0.350511 4.911547 -0.501254 -0.263161 0.962279 0.068880
0.297121 4.903994 -0.686085 0.071322 0.990600 -0.116489
0.255057 4.905352 -0.644062 -0.202918 0.966186 0.159001
0.112168 4.900689 -0.739483 -0.112766 0.969115 0.219184
0.193369 4.743803 -0.927026 0.380444 0.063478 -0.922605
-0.053373 4.440466 -0.964789 0.004578 -0.694235 -0.719718
-0.055356 4.740232 -0.976467 -0.000366 0.058016 -0.998291
0.195353 4.444037 -0.915348 0.290109 -0.690146 -0.662954
0.404204 4.750683 -0.786231 0.703299 0.074038 -0.706992
0.406187 4.450917 -0.774553 0.532151 -0.682241 -0.501328
0.545048 4.759824 -0.575517 0.918973 0.088015 -0.384350
0.547031 4.460058 -0.563837 0.693838 -0.671743 -0.259407
0.596444 4.470068 -0.315282 0.750572 -0.660268 0.025910
0.594461 4.769834 -0.326960 0.994629 0.103336 -0.003754
0.544920 4.779189 -0.078404 0.918760 0.117679 0.376812
0.546903 4.479424 -0.066726 0.693716 -0.649495 0.311258
0.403967 4.786465 0.132309 0.702933 0.128819 0.699454
0.405950 4.486700 0.143989 0.531877 -0.641163 0.553148
0.193060 4.790555 0.273106 0.379986 0.135075 0.915067
0.195043 4.490789 0.284784 0.289773 -0.636464 0.714774
-0.053708 4.491070 0.334225 0.004181 -0.636128 0.771538
-0.055691 4.790835 0.322547 -0.000885 0.135502 0.990753
-0.304417 4.787264 0.273106 -0.381726 0.130039 0.915067
-0.302434 4.487498 0.284784 -0.281320 -0.640217 0.714774
-0.515251 4.780384 0.132311 -0.704581 0.119510 0.699454
-0.513268 4.480618 0.143989 -0.523362 -0.648122 0.553148
-0.656097 4.771243 -0.078404 -0.920225 0.105502 0.376812
-0.654114 4.471478 -0.066726 -0.685049 -0.658620 0.311228
-0.703526 4.461468 -0.315282 -0.741783 -0.670125 0.025910
-0.705509 4.761233 -0.326960 -0.995911 0.090182 -0.003754
-0.655969 4.751878 -0.575517 -0.920042 0.075869 -0.384350
-0.653985 4.452112 -0.563837 -0.684896 -0.680868 -0.259407
-0.515014 4.744601 -0.786231 -0.704215 0.064699 -0.706992
-0.513031 4.444836 -0.774553 -0.523087 -0.689230 -0.501328
-0.304108 4.740512 -0.927026 -0.381268 0.058443 -0.922605
-0.302126 4.440746 -0.915346 -0.280953 -0.693930 -0.662954
0.086897 4.880518 0.014521 -0.139531 0.923093 -0.358348
-0.199275 4.851713 -0.676278 0.127140 0.949919 0.285379
-0.401880 4.869402 -0.187811 0.315928 0.933439 -0.169805
0.289502 4.862829 -0.473947 -0.328318 0.939573 0.096835
-0.401807 4.858255 -0.473947 0.315867 0.943815 0.096835
-0.199453 4.878624 0.014521 0.127293 0.924833 -0.358348
0.289428 4.873976 -0.187811 -0.328257 0.929167 -0.169805
0.087075 4.853607 -0.676278 -0.139683 0.948149 0.285379
-0.056093 4.851552 -0.704736 -0.006256 0.950072 0.311899
-0.320673 4.854067 -0.595236 0.240242 0.947722 0.209876
-0.430323 4.863641 -0.330879 0.342448 0.938810 -0.036470
-0.320810 4.874663 -0.066523 0.240394 0.928526 -0.282815
-0.056286 4.880679 0.042979 -0.006104 0.922941 -0.384869
0.208295 4.878164 -0.066521 -0.252663 0.925291 -0.282815
0.317945 4.868590 -0.330879 -0.354839 0.934202 -0.036470
0.208431 4.857568 -0.595235 -0.252785 0.944487 0.209845
-0.603529 4.462130 -0.315282 -0.652120 -0.757530 0.029328
-0.561608 4.454213 -0.525598 -0.602039 -0.766961 -0.221931
-0.561717 4.470599 -0.104966 -0.602191 -0.747398 0.280618
-0.442340 4.448056 -0.703894 0.006500 -0.999237 0.038484
-0.263881 4.444596 -0.823029 -0.246315 -0.778466 -0.577288
-0.053399 4.444359 -0.864865 0.005127 -0.778741 -0.627277
-0.442540 4.478333 0.073332 -0.459944 -0.738029 0.493667
-0.264143 4.484155 0.192467 0.006592 -0.999207 0.038911
-0.053683 4.487177 0.234301 0.004791 -0.727165 0.686392
0.156799 4.486939 0.192467 0.006592 -0.999207 0.038911
0.335259 4.483479 0.073332 0.469375 -0.732200 0.493454
0.454527 4.477323 -0.104966 0.611988 -0.739464 0.280404
0.496446 4.469406 -0.315282 0.662465 -0.748497 0.029389
0.454636 4.460937 -0.525598 0.611927 -0.759117 -0.221900
0.335459 4.453202 -0.703894 0.006409 -0.999176 0.039918
0.157061 4.447381 -0.823029 0.256600 -0.775140 -0.577288
-0.055739 4.798032 -0.967293 -0.002228 0.337992 -0.941130
0.188617 4.801540 -0.918721 0.352580 0.343059 -0.870602
-0.300121 4.798307 -0.918721 -0.357097 0.338389 -0.870602
0.156996 4.885371 -0.846937 0.148289 0.900937 -0.407758
-0.056297 4.882309 -0.889334 -0.005921 0.898709 -0.438459
0.458466 4.915716 -0.119208 0.366344 0.922880 0.118503
0.337593 4.921956 0.061489 0.278909 0.927396 0.249214
0.156731 4.925463 0.182228 0.148106 0.929929 0.336528
-0.056584 4.925703 0.224624 -0.006134 0.930113 0.367199
-0.269877 4.922641 0.182228 -0.160405 0.927885 0.336528
-0.450676 4.916741 0.061489 -0.291177 0.923612 0.249214
-0.571456 4.908902 -0.119208 -0.378521 0.917966 0.118503
-0.613831 4.900318 -0.332355 -0.409162 0.911740 -0.035615
-0.571347 4.892296 -0.545501 -0.378430 0.905942 -0.189764
-0.450473 4.886056 -0.726198 -0.291025 0.901425 -0.320444
-0.269612 4.882549 -0.846937 -0.160222 0.898892 -0.407788
0.395748 4.808300 -0.780398 0.653340 0.352886 -0.669729
0.534119 4.817280 -0.573385 0.854274 0.365947 -0.369152
0.582664 4.827114 -0.329195 0.924772 0.380230 -0.014557
0.533993 4.836305 -0.085006 0.854091 0.393567 0.339976
0.395516 4.843453 0.122009 0.653005 0.403943 0.640584
0.188314 4.847471 0.260332 0.352123 0.409772 0.841456
-0.056068 4.847747 0.308904 -0.002686 0.410169 0.911985
-0.300425 4.844238 0.260332 -0.357524 0.405072 0.841456
-0.507556 4.837479 0.122009 -0.658284 0.395276 0.640584
-0.645926 4.828499 -0.085006 -0.859218 0.382214 0.339976
-0.694471 4.818665 -0.329195 -0.929716 0.367931 -0.014557
-0.645800 4.809474 -0.573385 -0.859035 0.354595 -0.369152
-0.507323 4.802325 -0.780398 -0.657949 0.344218 -0.669729
-0.056069 4.847919 -0.936695 -0.004395 0.666616 -0.745354
0.175845 4.851249 -0.890597 0.270638 0.670553 -0.690695
0.372429 4.857664 -0.759318 0.503830 0.678182 -0.534959
0.503754 4.866186 -0.562844 0.659597 0.688284 -0.301920
0.549827 4.875520 -0.331089 0.714255 0.699332 -0.027039
0.503634 4.884243 -0.099333 0.659444 0.709677 0.247810
0.372208 4.891027 0.097139 0.503555 0.717734 0.480850
0.175557 4.894841 0.228419 0.270302 0.722282 0.636555
-0.056381 4.895103 0.274517 -0.004761 0.722587 0.691244
-0.288296 4.891772 0.228419 -0.279855 0.718619 0.636555
-0.484879 4.885357 0.097141 -0.513016 0.711020 0.480850
-0.616204 4.876835 -0.099333 -0.668783 0.700919 0.247810
-0.662278 4.867501 -0.331089 -0.723441 0.689840 -0.027039
-0.616085 4.858778 -0.562844 -0.668630 0.679495 -0.301950
-0.484658 4.851994 -0.759316 -0.512742 0.671438 -0.534959
-0.288008 4.848180 -0.890597 -0.279489 0.666921 -0.690695
0.337796 4.891271 -0.726198 0.279061 0.905209 -0.320444
0.458576 4.899110 -0.545501 0.366405 0.910855 -0.189764
0.500950 4.907694 -0.332355 0.397076 0.917081 -0.035615
-0.052738 4.344437 -0.860972 -0.004791 0.727592 -0.685965
0.157722 4.347459 -0.819137 0.246620 0.731193 -0.635975
0.336120 4.353280 -0.700001 0.459792 0.738151 -0.493637
0.335460 4.453202 -0.703894 0.707266 -0.022828 -0.706565
0.455297 4.361014 -0.521705 0.602161 0.747398 -0.280618
0.497107 4.369484 -0.311389 0.652120 0.757500 -0.029328
0.455188 4.377400 -0.101073 0.602039 0.766961 0.221931
0.335920 4.383557 0.077224 0.459548 0.774316 0.434950
0.156799 4.486939 0.192465 0.382427 0.038484 0.923154
0.157460 4.387017 0.196360 0.246284 0.778497 0.577258
-0.053022 4.387255 0.238193 -0.005127 0.778741 0.627277
-0.264142 4.484155 0.192465 -0.382885 0.033418 0.923154
-0.263482 4.384233 0.196360 -0.256600 0.775201 0.577197
-0.441879 4.378411 0.077224 -0.469741 0.768181 0.434950
-0.561056 4.370677 -0.101073 -0.612110 0.758934 0.221931
-0.602868 4.362207 -0.311389 -0.662099 0.748802 -0.029328
-0.560947 4.354291 -0.521705 -0.611988 0.739372 -0.280618
-0.441679 4.348134 -0.700001 -0.469497 0.732017 -0.493637
-0.442342 4.448056 -0.703894 -0.706900 -0.032197 -0.706565
-0.263220 4.344674 -0.819137 -0.256294 0.727836 -0.636006
-0.477025 4.346524 -0.735331 -0.084475 0.989563 -0.116550
-0.052725 4.342490 -0.910935 -0.006531 0.988830 -0.148839
-0.652866 4.361876 -0.311389 -0.116794 0.992370 -0.038667
-0.477244 4.379554 0.112552 -0.084536 0.995636 0.039186
-0.053034 4.389201 0.288154 -0.006592 0.997406 0.071444
0.371266 4.385167 0.112552 0.071352 0.996673 0.039186
0.176868 4.345787 -0.865298 0.035615 0.989441 -0.140446
-0.282342 4.342750 -0.865298 -0.048708 0.988861 -0.140446
-0.607136 4.353241 -0.540826 -0.108402 0.990783 -0.080844
-0.607255 4.371117 -0.081953 -0.108402 0.994079 0.003449
-0.282627 4.385904 0.242517 -0.048769 0.996796 0.063051
0.176583 4.388943 0.242517 0.035585 0.997345 0.063051
0.501376 4.378450 -0.081953 0.095248 0.995422 0.003449
0.547106 4.369815 -0.311389 0.103641 0.993835 -0.038667
0.501494 4.360576 -0.540826 0.095279 0.992157 -0.080844
0.371484 4.352138 -0.735331 0.071383 0.990600 -0.116550
-0.052085 4.245621 -0.926309 0.006134 -0.930174 -0.367046
-0.289023 4.245888 -0.879218 -0.148045 -0.929991 -0.336406
0.184220 4.341340 -0.882814 0.148320 0.900906 -0.407849
-0.052695 4.337938 -0.929905 -0.005921 0.898709 -0.438490
0.534133 4.364555 -0.067864 0.659444 0.709708 0.247810
0.519077 4.375046 -0.074488 0.366375 0.922849 0.118534
0.384816 4.381976 0.126221 0.278939 0.927366 0.249214
0.396356 4.371668 0.138105 0.503555 0.717765 0.480850
0.183925 4.385872 0.260332 0.148137 0.929899 0.336619
0.190201 4.375665 0.275726 0.270333 0.722251 0.636586
-0.053014 4.386139 0.307422 -0.006134 0.930082 0.367229
-0.052947 4.375939 0.324054 -0.004761 0.722617 0.691214
-0.289928 4.382737 0.260332 -0.160436 0.927854 0.336619
-0.296069 4.372448 0.275726 -0.279855 0.718619 0.636586
-0.490752 4.376184 0.126221 -0.291208 0.923612 0.249245
-0.502153 4.365724 0.138105 -0.512986 0.711020 0.480850
-0.624908 4.367477 -0.074488 -0.378582 0.917936 0.118534
-0.639825 4.356789 -0.067864 -0.668783 0.700919 0.247810
-0.671975 4.357943 -0.311241 -0.409223 0.911710 -0.035615
-0.688124 4.347004 -0.310819 -0.723411 0.689840 -0.027039
-0.624786 4.349031 -0.547994 -0.378460 0.905911 -0.189764
-0.639699 4.337860 -0.553776 -0.668630 0.679495 -0.301950
-0.490526 4.342101 -0.748703 -0.291055 0.901395 -0.320475
-0.501921 4.330748 -0.759743 -0.512742 0.671438 -0.534959
-0.289634 4.338205 -0.882814 -0.160222 0.898862 -0.407849
-0.295766 4.326750 -0.897367 -0.279489 0.666921 -0.690695
-0.052619 4.326476 -0.945693 -0.004395 0.666646 -0.745354
0.385042 4.347894 -0.748703 0.279092 0.905179 -0.320475
0.519199 4.356600 -0.547994 0.366497 0.910825 -0.189795
0.566266 4.366135 -0.311241 0.397107 0.917051 -0.035615
0.544633 4.291083 -0.555798 0.859249 -0.382183 -0.339976
0.548023 4.310175 -0.558000 0.923948 -0.008728 -0.382397
0.597436 4.320185 -0.309443 0.999969 0.006653 0.000000
0.593756 4.301035 -0.308698 0.929716 -0.367901 0.014557
0.547895 4.329540 -0.060887 0.923734 0.021027 0.382366
0.544506 4.310335 -0.061598 0.859035 -0.354564 0.369152
0.406942 4.336817 0.149826 0.706900 0.032228 0.706534
0.404378 4.317569 0.147884 0.657979 -0.344157 0.669759
0.196035 4.340906 0.290623 0.382427 0.038545 0.923154
0.194705 4.321634 0.287853 0.357067 -0.338389 0.870602
-0.052717 4.341187 0.340064 -0.000244 0.038942 0.999237
-0.052589 4.321914 0.337007 0.002228 -0.337962 0.941130
-0.301442 4.337615 0.290623 -0.382885 0.033448 0.923154
-0.299859 4.318363 0.287853 -0.352580 -0.343059 0.870602
-0.512276 4.330735 0.149828 -0.707266 0.022889 0.706565
-0.509458 4.311523 0.147884 -0.653371 -0.352855 0.669759
-0.653122 4.321594 -0.060887 -0.923948 0.008820 0.382366
-0.649478 4.302436 -0.061598 -0.854274 -0.365917 0.369152
-0.702535 4.311584 -0.309443 -0.999969 -0.006561 0.000000
-0.698602 4.292485 -0.308698 -0.924772 -0.380169 0.014557
-0.652994 4.302229 -0.558000 -0.923734 -0.020936 -0.382366
-0.649351 4.283184 -0.555798 -0.854091 -0.393536 -0.340007
-0.512040 4.294953 -0.768714 -0.706900 -0.032136 -0.706565
-0.509223 4.275950 -0.765280 -0.653035 -0.403912 -0.640614
-0.301133 4.290863 -0.909509 -0.382427 -0.038423 -0.923154
-0.299551 4.271885 -0.905251 -0.352153 -0.409711 -0.841456
-0.052382 4.290583 -0.958950 0.000244 -0.038881 -0.999237
-0.052256 4.271606 -0.954403 0.002686 -0.410138 -0.912015
-0.052509 4.309847 -0.955892 -0.002228 0.337962 -0.941130
0.194760 4.313397 -0.906741 0.352580 0.343089 -0.870602
0.196344 4.294154 -0.909509 0.382916 -0.033387 -0.923154
0.404359 4.320236 -0.766770 0.653340 0.352916 -0.669759
0.407178 4.301034 -0.768714 0.707266 -0.022797 -0.706565
0.544380 4.329324 -0.557288 0.854274 0.365947 -0.369121
0.593503 4.339275 -0.310188 0.924772 0.380230 -0.014557
0.544253 4.348576 -0.063088 0.854091 0.393567 0.339976
0.404125 4.355809 0.146394 0.653005 0.403912 0.640614
0.194452 4.359875 0.286363 0.352123 0.409833 0.841426
-0.052842 4.360154 0.335517 -0.002686 0.410199 0.911985
-0.300112 4.356604 0.286363 -0.357524 0.405133 0.841426
-0.509711 4.349764 0.146394 -0.658284 0.395276 0.640584
-0.649731 4.340676 -0.063088 -0.859218 0.382244 0.340007
-0.698855 4.330726 -0.310188 -0.929716 0.367962 -0.014557
-0.649604 4.321424 -0.557288 -0.859035 0.354595 -0.369121
-0.509476 4.314191 -0.766770 -0.657949 0.344218 -0.669759
-0.299804 4.310125 -0.906741 -0.357097 0.338389 -0.870602
0.190502 4.329967 -0.897367 0.270638 0.670553 -0.690695
0.396586 4.336692 -0.759743 0.503830 0.678182 -0.534959
0.534258 4.345626 -0.553776 0.659597 0.688284 -0.301950
0.582558 4.355411 -0.310819 0.714255 0.699332 -0.027039
0.184830 4.249022 -0.879218 0.160344 -0.927946 -0.336406
0.385653 4.255575 -0.745106 0.291055 -0.923673 -0.249092
0.372146 4.252216 -0.731439 0.144200 -0.984527 -0.099399
0.519810 4.264282 -0.544398 0.378368 -0.918027 -0.118442
0.502156 4.260653 -0.536933 0.186438 -0.981780 -0.036287
0.566877 4.273817 -0.307645 0.409009 -0.911802 0.035615
0.547767 4.269894 -0.307497 0.201239 -0.978790 0.038179
0.519688 4.282727 -0.070892 0.378307 -0.906003 0.189734
0.502037 4.278529 -0.078060 0.186377 -0.975982 0.112644
0.385427 4.289659 0.129817 0.290902 -0.901517 0.320353
0.371927 4.285246 0.116444 0.144139 -0.973785 0.175787
0.184536 4.293554 0.263928 0.160161 -0.898953 0.407666
0.177244 4.289021 0.246410 0.080966 -0.972564 0.217994
-0.052403 4.293821 0.311019 0.005921 -0.898801 0.438276
-0.052373 4.289280 0.292047 0.006409 -0.972472 0.232795
-0.289318 4.290420 0.263928 -0.148259 -0.900998 0.407666
-0.490141 4.283866 0.129817 -0.278970 -0.905271 0.320353
-0.476582 4.279633 0.116444 -0.131230 -0.975616 0.175756
-0.624297 4.275160 -0.070892 -0.366283 -0.910916 0.189734
-0.671364 4.265625 -0.307645 -0.396924 -0.917142 0.035615
-0.624175 4.256714 -0.544398 -0.366222 -0.922941 -0.118473
-0.489915 4.249783 -0.745106 -0.278817 -0.927458 -0.249092
-0.476364 4.246603 -0.731439 -0.131169 -0.986358 -0.099368
-0.052152 4.255821 -0.942941 0.004761 -0.722587 -0.691244
0.190970 4.259312 -0.894614 0.279855 -0.718619 -0.636586
0.397054 4.266037 -0.756991 0.513016 -0.711020 -0.480850
0.534725 4.274971 -0.551024 0.668783 -0.700919 -0.247810
0.583026 4.284756 -0.308067 0.723441 -0.689840 0.027039
0.534600 4.293900 -0.065111 0.668630 -0.679495 0.301950
0.396823 4.301013 0.140857 0.512742 -0.671468 0.534959
0.190668 4.305010 0.278479 0.279519 -0.666890 0.690695
-0.052479 4.305285 0.326806 0.004395 -0.666646 0.745323
-0.295601 4.301793 0.278479 -0.270669 -0.670522 0.690725
-0.501685 4.295069 0.140857 -0.503830 -0.678152 0.534989
-0.639357 4.286134 -0.065111 -0.659597 -0.688284 0.301920
-0.687656 4.276349 -0.308067 -0.714225 -0.699362 0.027039
-0.639232 4.267205 -0.551024 -0.659444 -0.709677 -0.247841
-0.501454 4.260093 -0.756991 -0.503555 -0.717734 -0.480850
-0.295299 4.256095 -0.894614 -0.270302 -0.722251 -0.636586
0.195013 4.275157 -0.905251 0.357524 -0.405042 -0.841456
0.404612 4.281996 -0.765280 0.658284 -0.395245 -0.640614
3 0 1 2
3 0 2 3
3 4 5 6
3 4 6 7
3 5 1 2
3 5 2 6
3 4 8 9
3 4 9 7
3 10 11 12
3 10 12 13
3 11 8 9
3 11 9 12
3 10 14 15
3 10 15 13
3 16 17 18
3 17 16 19
3 18 17 20
3 16 18 21
3 19 16 22
3 17 19 23
3 17 23 24
3 20 17 25
3 18 20 26
3 21 18 27
3 16 21 28
3 22 16 29
3 19 22 30
3 23 19 31
3 32 23 33
3 32 31 23
3 34 19 32
3 19 31 32
3 35 30 19
3 19 34 35
3 22 30 35
3 35 36 22
3 37 22 36
3 37 29 22
3 38 16 37
3 16 29 37
3 39 28 16
3 16 38 39
3 21 28 39
3 39 40 21
3 41 21 40
3 41 27 21
3 42 18 41
3 18 27 41
3 43 26 18
3 18 42 43
3 20 26 43
3 43 44 20
3 45 20 44
3 45 25 20
3 46 17 45
3 17 25 45
3 47 24 17
3 17 46 47
3 23 24 47
3 47 33 23
3 41 37 32
3 32 45 41
3 37 35 32
3 41 39 37
3 45 43 41
3 32 47 45
3 32 33 47
3 35 34 32
3 37 36 35
3 39 38 37
3 41 40 39
3 43 42 41
3 45 44 43
3 47 46 45
3 48 49 50
3 50 51 48
3 50 52 51
3 49 53 50
3 48 54 49
3 51 55 48
3 56 57 58
3 58 59 56
3 58 60 59
3 57 61 58
3 56 62 57
3 59 63 56
3 64 65 66
3 66 67 64
3 66 68 67
3 65 69 66
3 64 70 65
3 67 71 64
3 72 73 74
3 74 75 72
3 74 76 75
3 73 77 74
3 72 78 73
3 75 79 72
3 80 81 82
3 80 83 81
3 82 81 84
3 81 48 84
3 85 49 86
3 86 87 85
3 87 86 88
3 88 89 87
3 90 91 92
3 90 93 91
3 92 91 94
3 91 78 94
3 95 77 96
3 96 97 95
3 97 96 98
3 98 99 97
3 100 101 102
3 100 103 101
3 102 101 104
3 101 64 104
3 105 65 106
3 106 107 105
3 107 106 108
3 108 109 107
3 110 111 112
3 110 113 111
3 112 111 114
3 111 62 114
3 115 61 116
3 116 117 115
3 117 116 118
3 118 119 117
3 120 121 122
3 121 81 122
3 120 123 121
3 54 48 121
3 121 124 54
3 48 81 121
3 125 49 124
3 49 54 124
3 125 86 49
3 86 125 126
3 126 88 86
3 125 127 126
3 126 128 93
3 128 91 93
3 126 127 128
3 73 129 128
3 128 130 73
3 129 91 128
3 131 132 130
3 132 73 130
3 131 96 132
3 96 131 133
3 133 134 96
3 131 135 133
3 133 136 103
3 136 101 103
3 133 135 136
3 70 137 136
3 136 138 70
3 137 101 136
3 139 140 138
3 140 70 138
3 139 106 140
3 106 139 141
3 141 108 106
3 139 142 141
3 141 143 144
3 143 111 144
3 141 142 143
3 57 62 143
3 143 145 57
3 62 111 143
3 146 147 145
3 147 57 145
3 146 116 147
3 116 146 120
3 120 148 116
3 146 123 120
3 149 123 150
3 149 121 123
3 151 124 149
3 124 121 149
3 152 125 124
3 124 151 152
3 127 125 152
3 152 153 127
3 154 127 153
3 154 128 127
3 155 130 154
3 130 128 154
3 156 131 130
3 130 155 156
3 135 131 156
3 156 157 135
3 158 135 157
3 158 136 135
3 159 138 158
3 138 136 158
3 160 139 138
3 138 159 160
3 142 139 160
3 160 161 142
3 162 142 161
3 162 143 142
3 163 145 162
3 145 143 162
3 164 146 145
3 145 163 164
3 123 146 164
3 164 150 123
3 165 150 166
3 165 149 150
3 167 151 165
3 151 149 165
3 168 152 151
3 151 167 168
3 153 152 168
3 168 169 153
3 170 153 169
3 170 154 153
3 171 155 170
3 155 154 170
3 172 156 155
3 155 171 172
3 157 156 172
3 172 173 157
3 174 157 173
3 174 158 157
3 175 159 174
3 159 158 174
3 176 160 159
3 159 175 176
3 161 160 176
3 176 177 161
3 178 161 177
3 178 162 161
3 179 163 178
3 163 162 178
3 180 164 163
3 163 179 180
3 150 164 180
3 180 166 150
3 181 87 182
3 181 183 87
3 50 53 183
3 53 87 183
3 184 82 55
3 55 51 184
3 185 82 184
3 184 186 185
3 187 117 188
3 187 189 117
3 60 58 189
3 58 117 189
3 190 112 56
3 56 63 190
3 191 112 190
3 190 192 191
3 193 107 194
3 193 195 107
3 66 69 195
3 69 107 195
3 196 102 71
3 71 67 196
3 197 102 196
3 196 198 197
3 199 97 200
3 199 201 97
3 76 74 201
3 74 97 201
3 202 92 72
3 72 79 202
3 203 92 202
3 202 204 203
3 205 206 207
3 207 206 190
3 205 207 208
3 59 207 209
3 207 59 210
3 209 207 190
3 211 210 212
3 212 210 59
3 211 212 189
3 189 213 211
3 213 189 214
3 211 213 215
3 213 216 217
3 217 216 184
3 213 217 215
3 52 217 218
3 217 52 219
3 218 217 184
3 220 219 221
3 221 219 52
3 220 221 183
3 183 222 220
3 222 183 223
3 220 222 224
3 222 225 226
3 226 225 202
3 222 226 224
3 75 226 227
3 226 75 228
3 227 226 202
3 229 228 230
3 230 228 75
3 229 230 201
3 201 231 229
3 231 201 232
3 229 231 233
3 231 234 235
3 235 234 196
3 231 235 233
3 68 235 236
3 235 68 237
3 236 235 196
3 238 237 239
3 239 237 68
3 238 239 195
3 195 205 238
3 205 195 240
3 238 205 208
3 235 217 226
3 217 235 207
3 226 217 220
3 235 226 229
3 207 235 238
3 217 207 211
3 217 211 215
3 220 217 219
3 226 220 224
3 229 226 228
3 235 229 233
3 238 235 237
3 207 238 208
3 211 207 210
3 203 222 182
3 182 126 203
3 182 88 126
3 222 181 182
3 203 204 222
3 126 93 203
3 186 187 118
3 118 83 186
3 118 120 83
3 187 188 118
3 186 213 187
3 83 185 186
3 191 205 194
3 194 141 191
3 194 108 141
3 205 193 194
3 191 192 205
3 141 113 191
3 231 200 133
3 133 197 231
3 200 98 133
3 231 199 200
3 197 198 231
3 133 103 197
3 241 242 243
3 242 241 244
3 242 244 245
3 243 242 246
3 243 246 247
3 247 246 248
3 245 244 249
3 245 249 250
3 248 246 251
3 248 251 252
3 252 251 253
3 253 251 254
3 253 254 255
3 255 254 256
3 245 250 257
3 245 257 258
3 242 245 259
3 246 242 260
3 251 246 261
3 254 251 262
3 256 254 263
3 256 263 264
3 256 264 265
3 265 264 266
3 265 266 267
3 267 266 268
3 267 268 269
3 269 268 270
3 269 270 271
3 271 270 257
3 271 257 272
3 257 250 272
3 273 274 275
3 273 276 274
3 277 278 273
3 278 276 273
3 279 280 278
3 278 277 279
3 281 280 279
3 279 282 281
3 283 281 282
3 283 284 281
3 285 286 283
3 286 284 283
3 287 288 286
3 286 285 287
3 289 288 287
3 287 290 289
3 291 289 290
3 291 292 289
3 293 294 291
3 294 292 291
3 295 296 294
3 294 293 295
3 297 296 295
3 295 298 297
3 299 297 298
3 299 300 297
3 301 302 299
3 302 300 299
3 303 304 302
3 302 301 303
3 274 304 303
3 303 275 274
3 305 306 307
3 306 305 308
3 307 306 309
3 305 307 310
3 308 305 311
3 306 308 312
3 306 312 313
3 309 306 314
3 307 309 315
3 310 307 316
3 305 310 317
3 311 305 318
3 308 311 319
3 312 308 320
3 250 249 306
3 250 306 313
3 249 244 306
3 306 244 314
3 244 309 314
3 309 244 241
3 309 243 315
3 243 309 241
3 243 247 307
3 243 307 315
3 247 248 307
3 307 248 316
3 248 310 316
3 310 248 252
3 310 253 317
3 253 310 252
3 253 255 305
3 253 305 317
3 255 256 305
3 305 256 318
3 256 311 318
3 311 256 265
3 311 267 319
3 267 311 265
3 267 269 308
3 267 308 319
3 269 271 308
3 308 271 320
3 271 312 320
3 312 271 272
3 312 250 313
3 250 312 272
3 321 296 300
3 300 322 321
3 300 304 322
3 321 323 296
3 323 292 296
3 304 324 322
3 304 325 324
3 304 326 325
3 323 327 292
3 327 328 292
3 328 288 292
3 328 329 288
3 329 330 288
3 330 284 288
3 304 276 326
3 304 274 276
3 300 302 304
3 296 297 300
3 292 294 296
3 288 289 292
3 284 286 288
3 330 331 284
3 331 281 284
3 331 332 281
3 332 280 281
3 332 333 280
3 333 278 280
3 333 334 278
3 334 276 278
3 334 335 276
3 335 336 276
3 276 336 326
3 273 275 337
3 273 337 338
3 275 303 337
3 337 303 339
3 258 340 341
3 340 258 257
3 342 264 263
3 342 263 343
3 343 263 254
3 343 254 344
3 344 254 262
3 344 262 345
3 345 262 251
3 345 251 346
3 346 251 261
3 346 261 347
3 347 261 246
3 347 246 348
3 348 246 260
3 348 260 349
3 349 260 242
3 349 242 350
3 350 242 259
3 350 259 351
3 351 259 245
3 351 245 352
3 352 245 258
3 352 258 341
3 273 338 353
3 273 353 277
3 277 353 354
3 277 354 279
3 279 354 355
3 279 355 282
3 282 355 356
3 282 356 283
3 283 356 357
3 283 357 285
3 285 357 358
3 285 358 287
3 287 358 359
3 287 359 290
3 290 359 360
3 290 360 291
3 291 360 361
3 291 361 293
3 293 361 362
3 293 362 295
3 295 362 363
3 295 363 298
3 298 363 364
3 298 364 299
3 299 364 365
3 299 365 301
3 301 365 339
3 301 339 303
3 337 366 367
3 337 367 338
3 338 367 368
3 338 368 353
3 353 368 369
3 353 369 354
3 354 369 370
3 354 370 355
3 355 370 371
3 355 371 356
3 356 371 372
3 356 372 357
3 357 372 373
3 357 373 358
3 358 373 374
3 358 374 359
3 359 374 375
3 359 375 360
3 360 375 376
3 360 376 361
3 361 376 377
3 361 377 362
3 362 377 378
3 362 378 363
3 363 378 379
3 363 379 364
3 364 379 380
3 364 380 365
3 365 380 381
3 365 381 339
3 339 381 366
3 339 366 337
3 366 341 340
3 366 340 367
3 367 340 382
3 367 382 368
3 368 382 383
3 368 383 369
3 369 383 384
3 369 384 370
3 370 384 342
3 370 342 371
3 371 342 343
3 371 343 372
3 372 343 344
3 372 344 373
3 373 344 345
3 373 345 374
3 374 345 346
3 374 346 375
3 375 346 347
3 375 347 376
3 376 347 348
3 376 348 377
3 377 348 349
3 377 349 378
3 378 349 350
3 378 350 379
3 379 350 351
3 379 351 380
3 380 351 352
3 380 352 381
3 381 352 341
3 381 341 366
3 340 257 270
3 340 270 382
3 382 270 268
3 382 268 383
3 383 268 266
3 383 266 384
3 384 266 264
3 384 264 342
3 385 336 386
3 385 326 336
3 386 336 387
3 336 388 387
3 387 388 334
3 334 389 387
3 334 333 390
3 390 389 334
3 390 332 391
3 390 333 332
3 391 332 392
3 332 331 392
3 392 331 393
3 393 394 392
3 393 329 395
3 395 394 393
3 395 396 397
3 395 329 396
3 397 396 398
3 396 327 398
3 398 327 323
3 323 399 398
3 323 321 400
3 400 399 323
3 400 322 401
3 400 321 322
3 401 322 402
3 322 403 402
3 402 403 325
3 325 404 402
3 325 326 385
3 385 404 325
3 402 405 401
3 405 402 404
3 405 404 406
3 401 405 407
3 401 407 400
3 400 407 399
3 406 404 385
3 406 385 386
3 399 407 408
3 399 408 398
3 398 408 397
3 397 408 409
3 397 409 395
3 395 409 394
3 394 409 410
3 406 386 411
3 405 406 412
3 407 405 413
3 408 407 414
3 409 408 415
3 410 409 416
3 394 410 392
3 392 410 417
3 392 417 391
3 391 417 418
3 391 418 390
3 390 418 419
3 390 419 389
3 389 419 420
3 389 420 387
3 387 420 411
3 387 411 386
3 421 172 422
3 172 421 173
3 406 411 423
3 406 423 424
3 425 426 427
3 425 427 428
3 428 427 429
3 428 429 430
3 430 429 431
3 430 431 432
3 432 431 433
3 432 433 434
3 434 433 435
3 434 435 436
3 436 435 437
3 436 437 438
3 438 437 439
3 438 439 440
3 440 439 441
3 440 441 442
3 442 441 443
3 442 443 444
3 444 443 445
3 444 445 446
3 446 445 424
3 446 424 447
3 423 411 420
3 423 420 448
3 448 420 419
3 448 419 449
3 449 419 418
3 449 418 450
3 450 418 417
3 450 417 426
3 426 417 410
3 426 410 427
3 427 410 416
3 427 416 429
3 429 416 409
3 429 409 431
3 431 409 415
3 431 415 433
3 433 415 408
3 433 408 435
3 435 408 414
3 435 414 437
3 437 414 407
3 437 407 439
3 439 407 413
3 439 413 441
3 441 413 405
3 441 405 443
3 443 405 412
3 443 412 445
3 445 412 406
3 445 406 424
3 451 452 453
3 451 453 454
3 454 453 455
3 454 455 456
3 456 455 457
3 456 457 458
3 458 457 459
3 458 459 460
3 460 459 461
3 460 461 462
3 462 461 463
3 462 463 464
3 464 463 465
3 464 465 466
3 466 465 467
3 466 467 468
3 468 467 469
3 468 469 470
3 470 469 471
3 470 471 472
3 472 471 473
3 472 473 474
3 474 473 475
3 474 475 476
3 476 475 477
3 476 477 478
3 477 479 480
3 477 480 481
3 481 480 482
3 481 482 483
3 483 482 484
3 483 484 452
3 452 484 485
3 452 485 453
3 453 485 486
3 453 486 455
3 455 486 487
3 455 487 457
3 457 487 488
3 457 488 459
3 459 488 489
3 459 489 461
3 461 489 490
3 461 490 463
3 463 490 491
3 463 491 465
3 465 491 492
3 465 492 467
3 467 492 493
3 467 493 469
3 469 493 494
3 469 494 471
3 471 494 495
3 471 495 473
3 473 495 496
3 473 496 475
3 475 496 479
3 475 479 477
3 479 447 497
3 479 497 480
3 480 497 498
3 480 498 482
3 482 498 499
3 482 499 484
3 484 499 500
3 484 500 485
3 485 500 425
3 485 425 486
3 486 425 428
3 486 428 487
3 487 428 430
3 487 430 488
3 488 430 432
3 488 432 489
3 489 432 434
3 489 434 490
3 490 434 436
3 490 436 491
3 491 436 438
3 491 438 492
3 492 438 440
3 492 440 493
3 493 440 442
3 493 442 494
3 494 442 444
3 494 444 495
3 495 444 446
3 495 446 496
3 496 446 447
3 496 447 479
3 447 424 423
3 447 423 497
3 497 423 448
3 497 448 498
3 498 448 449
3 498 449 499
3 499 449 450
3 499 450 500
3 500 450 426
3 500 426 425
3 173 421 501
3 173 501 174
3 174 501 502
3 174 502 503
3 503 502 504
3 503 504 505
3 505 504 506
3 505 506 507
3 507 506 508
3 507 508 509
3 509 508 510
3 509 510 511
3 511 510 512
3 511 512 513
3 513 512 514
3 513 514 515
3 515 514 516
3 515 516 165
3 165 516 517
3 165 517 518
3 518 517 519
3 518 519 168
3 168 519 520
3 168 520 169
3 169 520 521
3 169 521 170
3 170 521 522
3 170 522 523
3 523 522 422
3 523 422 172
3 421 524 525
3 421 525 501
3 501 525 526
3 501 526 502
3 502 526 527
3 502 527 504
3 504 527 528
3 504 528 506
3 506 528 529
3 506 529 508
3 508 529 530
3 508 530 510
3 510 530 531
3 510 531 512
3 512 531 532
3 512 532 514
3 514 532 533
3 514 533 516
3 516 533 534
3 516 534 517
3 517 534 535
3 517 535 519
3 519 535 536
3 519 536 520
3 520 536 537
3 520 537 521
3 521 537 538
3 521 538 522
3 522 538 539
3 522 539 422
3 422 539 524
3 422 524 421
3 524 478 540
3 524 540 525
3 525 540 541
3 525 541 526
3 526 541 451
3 526 451 527
3 527 451 454
3 527 454 528
3 528 454 456
3 528 456 529
3 529 456 458
3 529 458 530
3 530 458 460
3 530 460 531
3 531 460 462
3 531 462 532
3 532 462 464
3 532 464 533
3 533 464 466
3 533 466 534
3 534 466 468
3 534 468 535
3 535 468 470
3 535 470 536
3 536 470 472
3 536 472 537
3 537 472 474
3 537 474 538
3 538 474 476
3 538 476 539
3 539 476 478
3 539 478 524
3 478 477 481
3 478 481 540
3 540 481 483
3 540 483 541
3 541 483 452
3 541 452 451
