ply
format ascii 1.0
comment Created by Blender 2.79 (sub 0) - www.blender.org, source file: ''
element vertex 322
property float x
property float y
property float z
property float nx
property float ny
property float nz
element face 636
property list uchar uint vertex_indices
end_header
-1.298607 -0.383553 0.225269 -0.061800 -0.544176 -0.836665
-2.845696 -0.288381 0.281874 -0.065035 -0.543504 -0.836848
-3.527535 -0.244532 0.307227 -0.852229 0.043672 -0.521317
0.366069 -0.475481 0.166591 -0.051576 -0.546861 -0.835597
1.400684 -0.509602 0.135016 -0.052705 -0.533830 -0.843928
3.047566 -0.852703 0.088314 0.618610 0.161992 -0.768792
2.716550 -0.897129 0.086644 -0.435591 -0.380779 -0.815607
2.543023 -0.790107 0.113487 -0.330546 -0.451918 -0.828516
3.100036 -1.042836 0.046639 0.549120 0.463820 -0.695181
3.100379 -1.221333 0.008663 -0.432203 -0.437757 -0.788354
2.865266 -1.031928 0.054477 -0.486892 -0.380840 -0.786035
3.719062 -1.462356 -0.057144 -0.043031 -0.589984 -0.806238
3.394204 -1.389943 -0.034107 -0.290231 -0.531327 -0.795862
4.285150 -1.281784 -0.032041 0.446394 -0.430067 -0.784661
4.030474 -1.413496 -0.054071 0.216224 -0.546922 -0.808740
4.520702 -0.849034 0.054471 0.738151 0.128544 -0.662252
4.457190 -1.087022 0.005343 0.649739 -0.202704 -0.732597
4.306469 -0.419677 0.150833 0.460982 0.703391 -0.541002
4.465555 -0.612194 0.106144 0.661031 0.460738 -0.592212
3.721990 -0.239698 0.202852 0.018983 0.855525 -0.517350
4.054830 -0.289503 0.184436 0.219916 0.827967 -0.515824
3.193966 -0.322383 0.197675 -0.273843 0.802759 -0.529679
3.400028 -0.260599 0.205974 -0.144505 0.845363 -0.514237
-2.827114 -0.083111 0.325099 -0.117771 0.845119 -0.521409
-1.249427 0.010157 0.307857 -0.035218 0.843226 -0.536363
0.421509 0.015161 0.269650 0.024995 0.846950 -0.531053
3.243965 -1.197940 0.010264 0.383038 0.671865 -0.633900
3.012094 -0.406447 0.184069 -0.280404 0.777886 -0.562304
2.762672 -0.494189 0.171268 -0.146428 0.797510 -0.585223
3.457637 -1.302272 -0.016950 0.186010 0.778100 -0.599933
3.719355 -1.340090 -0.031145 -0.015473 0.809961 -0.586261
3.981257 -1.300968 -0.028979 -0.217231 0.777093 -0.590655
4.195431 -1.195570 -0.011594 -0.415082 0.669881 -0.615558
3.245621 -0.506483 0.157302 0.380596 -0.357524 -0.852809
3.459795 -0.401083 0.174687 0.183050 -0.467513 -0.864803
4.340105 -1.039748 0.018150 -0.582781 0.461013 -0.669179
3.721697 -0.361963 0.176853 -0.018616 -0.501236 -0.865078
4.393486 -0.849351 0.057394 -0.654073 0.158818 -0.739555
3.983415 -0.399779 0.162658 -0.220222 -0.468520 -0.855556
4.341016 -0.659220 0.099069 -0.584216 -0.146184 -0.798273
4.197087 -0.504113 0.135443 -0.417554 -0.359508 -0.834468
-2.842954 -0.313190 0.398513 -0.032563 -0.837519 0.545396
-3.524794 -0.269341 0.423866 -0.827509 -0.180303 0.531693
-1.295865 -0.408362 0.341908 -0.029328 -0.838038 0.544786
0.368810 -0.500291 0.283230 -0.019196 -0.839961 0.542283
1.403426 -0.534412 0.251655 -0.036195 -0.834834 0.549242
1.846219 -0.547760 0.125012 -0.078341 -0.491653 -0.867244
1.848960 -0.572569 0.241650 -0.162053 -0.820582 0.548051
2.240119 -0.658910 0.128894 -0.193732 -0.481063 -0.854976
2.242861 -0.683720 0.245533 -0.263588 -0.787225 0.557451
2.545764 -0.814916 0.230125 -0.315134 -0.741661 0.592090
2.719291 -0.921938 0.203282 -0.402081 -0.683798 0.608844
2.868007 -1.056737 0.171115 -0.454695 -0.672292 0.584155
3.103120 -1.246142 0.125302 -0.400494 -0.724693 0.560656
3.396945 -1.414752 0.082531 -0.259224 -0.811884 0.523057
3.721803 -1.487165 0.059494 -0.012391 -0.867306 0.497574
4.033216 -1.438305 0.062567 0.247139 -0.826533 0.505692
4.287891 -1.306593 0.084597 0.477096 -0.707785 0.520920
4.459931 -1.111832 0.121981 0.680044 -0.476974 0.556780
4.523444 -0.873843 0.171109 0.768364 -0.144902 0.623341
4.468296 -0.637004 0.222782 0.691336 0.186254 0.698050
4.309211 -0.444486 0.267471 0.491531 0.426862 0.759026
4.057571 -0.314313 0.301074 0.250801 0.548601 0.797571
3.724731 -0.264507 0.319490 0.050417 0.571245 0.819208
3.402769 -0.285408 0.322612 -0.113163 0.561663 0.819575
3.196707 -0.347193 0.314313 -0.242073 0.515213 0.822138
3.014835 -0.431257 0.300707 -0.247414 0.479171 0.842097
2.765414 -0.518998 0.287906 -0.112339 0.489029 0.864986
2.443790 -0.510518 0.175289 0.092715 0.812952 -0.574877
2.446531 -0.535328 0.291927 0.056398 0.478927 0.876034
2.112332 -0.417637 0.183217 0.283578 0.789422 -0.544389
2.115074 -0.442447 0.299856 0.182257 0.467910 0.864772
1.765562 -0.259355 0.188252 0.307291 0.763848 -0.567522
1.768303 -0.284165 0.304891 0.287118 0.487197 0.824732
1.401693 -0.088210 0.224625 0.194037 0.834864 -0.515091
1.404435 -0.113019 0.341264 0.215827 0.561052 0.799127
0.424250 -0.009648 0.386289 0.056917 0.557878 0.827937
-1.246686 -0.014653 0.424497 -0.003021 0.551714 0.833979
-2.824373 -0.107921 0.441739 -0.086154 0.558763 0.824824
3.986156 -0.424589 0.279296 -0.186010 -0.778100 0.599933
3.724439 -0.386773 0.293491 0.015473 -0.809961 0.586261
4.199828 -0.528923 0.252082 -0.383038 -0.671865 0.633900
4.343758 -0.684030 0.215707 -0.549120 -0.463820 0.695181
4.396228 -0.874160 0.174032 -0.618610 -0.161992 0.768792
4.342846 -1.064557 0.134788 -0.547685 0.143315 0.824305
4.198172 -1.220380 0.105044 -0.380566 0.357524 0.852809
3.983998 -1.325778 0.087659 -0.183050 0.467513 0.864803
3.722096 -1.364900 0.085493 0.018616 0.501236 0.865078
3.460378 -1.327082 0.099689 0.220222 0.468520 0.855525
3.246706 -1.222750 0.126902 0.417554 0.359508 0.834468
3.102777 -1.067646 0.163277 0.584216 0.146153 0.798303
3.050307 -0.877512 0.204952 0.654073 -0.158818 0.739555
3.100947 -0.662309 0.127557 0.547685 -0.143315 -0.824305
3.103688 -0.687118 0.244195 0.582781 -0.461013 0.669179
3.248362 -0.531292 0.273940 0.415082 -0.669851 0.615558
3.462536 -0.425893 0.291325 0.217231 -0.777093 0.590655
-1.292263 -0.145563 0.527652 -0.026032 0.543931 0.838679
-2.839819 -0.248441 0.542142 -0.029267 0.543290 0.839015
-3.521876 -0.295687 0.548123 -0.827143 -0.047853 0.559923
1.407674 -0.006066 0.493867 -0.016541 0.533647 0.845515
0.372883 -0.045341 0.509834 -0.015870 0.546678 0.837153
3.053225 0.345234 0.464932 0.654042 -0.158818 0.739555
2.722427 0.388012 0.481806 -0.399548 0.378704 0.834803
2.548386 0.280124 0.462948 -0.294382 0.450362 0.842891
3.106616 0.535628 0.504175 0.582781 -0.461013 0.669179
3.107813 0.714132 0.542115 -0.397717 0.435682 0.807428
2.871790 0.523552 0.507125 -0.452162 0.378491 0.807611
3.727659 0.958237 0.579470 -0.008881 0.589831 0.807428
3.402450 0.884210 0.571367 -0.255989 0.529984 0.808405
4.292889 0.780480 0.528375 0.479812 0.432386 0.763390
4.038840 0.910930 0.562093 0.250404 0.548082 0.798029
4.526371 0.348903 0.431089 0.768426 -0.124790 0.627644
4.463997 0.586574 0.483109 0.681661 0.206030 0.702017
4.310079 -0.081526 0.344618 0.488845 -0.701041 0.519181
4.470088 0.111786 0.381976 0.689810 -0.457350 0.561205
3.724730 -0.264419 0.319473 0.046999 -0.855373 0.515824
4.057813 -0.212955 0.322592 0.247505 -0.826807 0.505081
3.197096 -0.184362 0.348903 -0.245216 -0.804041 0.541581
3.402864 -0.245121 0.331143 -0.116520 -0.846004 0.520218
-2.822220 -0.453620 0.498086 -0.089511 -0.845637 0.526170
-1.244958 -0.539032 0.442848 -0.006348 -0.843318 0.537339
0.425974 -0.535713 0.404282 0.053560 -0.846736 0.529252
3.251289 0.691454 0.533920 0.415082 -0.669851 0.615558
3.015625 -0.101203 0.370856 -0.250404 -0.779229 0.574511
2.766620 -0.014704 0.395108 -0.115421 -0.798151 0.591235
3.465464 0.796854 0.551305 0.217231 -0.777093 0.590655
3.727366 0.835974 0.553470 0.015473 -0.809961 0.586261
3.989084 0.798158 0.539276 -0.186010 -0.778100 0.599933
4.202755 0.693824 0.512061 -0.383038 -0.671865 0.633900
3.249633 -0.000003 0.386882 0.417554 0.359508 0.834468
3.463305 -0.104338 0.359668 0.220222 0.468520 0.855556
4.346685 0.538717 0.475686 -0.549150 -0.463820 0.695181
3.725023 -0.142153 0.345473 0.018616 0.501236 0.865078
4.399155 0.348586 0.434012 -0.618610 -0.161992 0.768792
3.986916 -0.103034 0.347639 -0.183020 0.467513 0.864803
4.345774 0.158191 0.394768 -0.547655 0.143345 0.824305
4.201099 0.002367 0.365024 -0.380566 0.357524 0.852809
-2.842560 -0.223631 0.425504 -0.061739 0.837336 -0.543138
-3.524617 -0.270877 0.431485 -0.851924 0.176122 -0.493088
-1.295004 -0.120753 0.411013 -0.058504 0.837825 -0.542772
0.370141 -0.020531 0.393195 -0.048250 0.839778 -0.540727
1.404933 0.018744 0.377228 -0.065554 0.834590 -0.546922
1.853003 0.034310 0.483407 -0.040895 0.491348 0.869991
1.850261 0.059120 0.366768 -0.191137 0.819697 -0.539933
2.245751 0.147420 0.461451 -0.156652 0.480178 0.863033
2.243010 0.172230 0.344812 -0.292825 0.785852 -0.544664
2.545645 0.304934 0.346309 -0.345683 0.740013 -0.576891
2.719686 0.412822 0.365167 -0.433027 0.681722 -0.589648
2.869049 0.548362 0.390486 -0.484359 0.669942 -0.562578
3.105072 0.738941 0.425476 -0.429426 0.722648 -0.541612
3.399709 0.909019 0.454728 -0.286996 0.810541 -0.510514
3.724917 0.983046 0.462830 -0.039521 0.867183 -0.496384
4.036099 0.935740 0.445454 0.219520 0.827693 -0.516434
4.290147 0.805290 0.411736 0.449141 0.710105 -0.542222
4.461256 0.611384 0.366470 0.651357 0.480270 -0.587359
4.523630 0.373713 0.314450 0.738212 0.148656 -0.657979
4.467347 0.136596 0.265337 0.659474 -0.182897 -0.729087
4.307338 -0.056717 0.227979 0.458296 -0.424512 -0.780847
4.055071 -0.188145 0.205952 0.216620 -0.547441 -0.808313
3.721989 -0.239609 0.202834 0.015564 -0.571062 -0.820734
3.400123 -0.220311 0.214504 -0.147862 -0.562304 -0.813562
3.194355 -0.159552 0.232264 -0.276986 -0.516495 -0.810205
3.012884 -0.076393 0.254217 -0.283425 -0.480483 -0.829920
2.763879 0.010106 0.278468 -0.149510 -0.489700 -0.858974
2.447802 0.000039 0.405737 0.123051 -0.812403 0.569933
2.445061 0.024848 0.289097 0.018494 -0.478713 -0.877743
2.116797 -0.094492 0.413026 0.312204 -0.787927 0.530717
2.114056 -0.069682 0.296387 0.144688 -0.467086 -0.872280
1.770963 -0.254499 0.423904 0.336833 -0.762230 0.552721
1.768221 -0.229690 0.307265 0.251350 -0.485855 -0.837092
1.406665 -0.427458 0.404259 0.221625 -0.833827 0.505539
1.403924 -0.402649 0.287620 0.181677 -0.560076 -0.808252
0.423233 -0.510903 0.287643 0.021607 -0.557665 -0.829737
-1.247699 -0.514222 0.326209 -0.038575 -0.551836 -0.833033
-2.824962 -0.428811 0.381447 -0.121158 -0.559282 -0.820032
3.984174 -0.078224 0.230999 -0.217231 0.777093 -0.590655
3.722282 -0.117343 0.228834 -0.015473 0.809961 -0.586261
4.198358 0.027176 0.248385 -0.415082 0.669851 -0.615558
4.343032 0.183001 0.278129 -0.582781 0.461013 -0.669149
4.396414 0.373396 0.317373 -0.654073 0.158818 -0.739555
4.343944 0.563527 0.359047 -0.584246 -0.146123 -0.798303
4.200014 0.718634 0.395422 -0.417554 -0.359508 -0.834468
3.986342 0.822968 0.422637 -0.220222 -0.468520 -0.855525
3.724625 0.860783 0.436831 -0.018616 -0.501236 -0.865078
3.462722 0.821664 0.434666 0.183050 -0.467513 -0.864803
3.248548 0.716264 0.417281 0.380596 -0.357524 -0.852809
3.103874 0.560438 0.387536 0.547685 -0.143345 -0.824305
3.050483 0.370044 0.348293 0.618580 0.161992 -0.768792
3.105704 0.155104 0.423257 0.584216 0.146153 0.798303
3.102963 0.179914 0.306618 0.549120 0.463851 -0.695181
3.246892 0.024807 0.270243 0.383038 0.671865 -0.633900
3.460564 -0.079528 0.243029 0.186010 0.778100 -0.599933
0.724363 -0.275543 0.557885 0.176092 0.174291 0.968810
0.708116 -0.272421 0.558931 0.021943 0.203925 0.978729
0.708210 -0.315722 0.558357 0.022950 -0.207984 0.977844
0.738118 -0.284514 0.555653 0.306681 0.089114 0.947600
0.747283 -0.297969 0.552576 0.393658 -0.038545 0.918424
0.750484 -0.313859 0.549121 0.423994 -0.189306 0.885617
0.747207 -0.329766 0.545814 0.392926 -0.340312 0.854274
0.737978 -0.343267 0.543159 0.305368 -0.468368 0.829066
0.724179 -0.352307 0.541561 0.174352 -0.554216 0.813868
0.707917 -0.355510 0.541262 0.020051 -0.584613 0.811029
0.691678 -0.352388 0.542308 -0.134037 -0.554979 0.820978
0.677924 -0.343417 0.544539 -0.264565 -0.469863 0.842128
0.668748 -0.329961 0.547617 -0.351634 -0.342174 0.871334
0.665557 -0.314071 0.551072 -0.381939 -0.191321 0.904141
0.668825 -0.298164 0.554378 -0.350963 -0.040376 0.935514
0.678064 -0.284664 0.557033 -0.263222 0.087741 0.960723
0.691862 -0.275624 0.558631 -0.132298 0.173528 0.975890
0.737664 -0.237965 0.540960 0.292550 0.505722 0.811548
0.707647 -0.232196 0.542893 0.017640 0.558519 0.829279
0.763078 -0.254542 0.536837 0.525346 0.353832 0.773797
0.780024 -0.279404 0.531151 0.680563 0.126133 0.721732
0.785932 -0.308765 0.524766 0.734672 -0.142735 0.663198
0.779883 -0.338157 0.518657 0.679250 -0.412061 0.607288
0.762818 -0.363104 0.513752 0.522996 -0.640492 0.562334
0.737325 -0.379807 0.510798 0.289438 -0.793512 0.535264
0.707279 -0.385725 0.510245 0.014252 -0.847713 0.530229
0.677271 -0.379956 0.512178 -0.260598 -0.794855 0.547929
0.651858 -0.363380 0.516301 -0.493393 -0.643025 0.585681
0.634912 -0.338518 0.521987 -0.648610 -0.415357 0.637776
0.629004 -0.309156 0.528372 -0.702689 -0.146367 0.696249
0.635053 -0.279765 0.534481 -0.647298 0.122868 0.752220
0.652118 -0.254819 0.539386 -0.491043 0.351299 0.797143
0.677610 -0.238114 0.542340 -0.257485 0.504318 0.824213
0.746087 -0.208711 0.510163 0.365307 0.760979 0.536119
0.706876 -0.201174 0.512687 0.010743 0.829127 0.558946
0.779295 -0.230370 0.504775 0.665639 0.565111 0.487381
0.801442 -0.262854 0.497345 0.865902 0.271340 0.420148
0.809148 -0.301216 0.489004 0.935636 -0.075533 0.344707
0.801258 -0.339618 0.481021 0.864254 -0.422773 0.272561
0.778956 -0.372212 0.474613 0.662526 -0.717582 0.214667
0.745643 -0.394036 0.470753 0.361309 -0.914945 0.179724
0.706395 -0.401769 0.470031 0.006409 -0.984863 0.173193
0.667184 -0.394232 0.472556 -0.348186 -0.916684 0.196051
0.633985 -0.372573 0.477943 -0.648427 -0.720817 0.244789
0.611839 -0.340090 0.485373 -0.848628 -0.427137 0.311960
0.604123 -0.301727 0.493714 -0.918393 -0.080172 0.387402
0.612023 -0.263326 0.501697 -0.846950 0.267129 0.459609
0.634325 -0.230731 0.508106 -0.645344 0.561815 0.517533
0.667628 -0.208906 0.511965 -0.344157 0.759178 0.552385
0.748368 -0.192234 0.470178 0.296762 0.852657 -0.429945
0.705919 -0.184077 0.472911 -0.011689 0.911924 -0.410108
0.784312 -0.215677 0.464347 0.558061 0.682241 -0.472304
0.808271 -0.250838 0.456305 0.732170 0.426710 -0.530839
0.816619 -0.292361 0.447277 0.792871 0.124882 -0.596423
0.808073 -0.333927 0.438636 0.730735 -0.177068 -0.659261
0.783944 -0.369206 0.431699 0.555345 -0.433576 -0.709616
0.747887 -0.392829 0.427522 0.293283 -0.605304 -0.739982
0.705399 -0.401198 0.426740 -0.015473 -0.666097 -0.745689
0.662960 -0.393041 0.429473 -0.323923 -0.606800 -0.725822
0.627016 -0.369597 0.435304 -0.585192 -0.436415 -0.683401
0.603047 -0.334437 0.443346 -0.759392 -0.180914 -0.624958
0.594698 -0.292913 0.452375 -0.820063 0.120884 -0.559343
0.603246 -0.251348 0.461015 -0.757927 0.423017 -0.496536
0.627384 -0.216068 0.467952 -0.582507 0.679434 -0.446089
0.663441 -0.192446 0.472129 -0.320444 0.851100 -0.415784
0.697564 -0.219373 0.105387 -0.022980 0.207984 -0.977844
0.697857 -0.179586 0.122483 -0.020081 0.584613 -0.811060
0.714105 -0.182708 0.121437 0.134007 0.554979 -0.820978
0.727860 -0.191679 0.119205 0.264595 0.469802 -0.842158
0.737025 -0.205134 0.116128 0.351573 0.342143 -0.871364
0.740226 -0.221025 0.112673 0.381939 0.191351 -0.904141
0.736949 -0.236931 0.109366 0.350841 0.040376 -0.935545
0.727719 -0.250433 0.106711 0.263283 -0.087680 -0.960692
0.713921 -0.259473 0.105113 0.132267 -0.173498 -0.975890
0.697659 -0.262675 0.104814 -0.021973 -0.203894 -0.978729
0.681420 -0.259553 0.105859 -0.176122 -0.174291 -0.968810
0.667665 -0.250582 0.108091 -0.306619 -0.089145 -0.947630
0.658490 -0.237126 0.111169 -0.393719 0.038514 -0.918393
0.655299 -0.221236 0.114624 -0.423994 0.189367 -0.885617
0.658566 -0.205330 0.117930 -0.393017 0.340281 -0.854244
0.667806 -0.191829 0.120585 -0.305277 0.468429 -0.829066
0.681604 -0.182789 0.122183 -0.174352 0.554216 -0.813898
0.698495 -0.149370 0.153498 -0.014283 0.847713 -0.530229
0.728512 -0.155139 0.151566 0.260598 0.794885 -0.547929
0.753926 -0.171716 0.147443 0.493393 0.643025 -0.585681
0.770872 -0.196578 0.141756 0.648610 0.415296 -0.637776
0.776780 -0.225939 0.135372 0.702719 0.146397 -0.696219
0.770731 -0.255331 0.129262 0.647298 -0.122868 -0.752251
0.753666 -0.280277 0.124357 0.491043 -0.351329 -0.797143
0.728173 -0.296981 0.121403 0.257485 -0.504349 -0.824183
0.698127 -0.302899 0.120851 -0.017670 -0.558519 -0.829279
0.668119 -0.297130 0.122783 -0.292550 -0.505692 -0.811579
0.642706 -0.280554 0.126906 -0.525346 -0.353862 -0.773797
0.625760 -0.255692 0.132593 -0.680563 -0.126164 -0.721732
0.619852 -0.226330 0.138977 -0.734642 0.142796 -0.663228
0.625901 -0.196939 0.145086 -0.679250 0.412061 -0.607257
0.642966 -0.171992 0.149992 -0.522996 0.640492 -0.562334
0.668458 -0.155288 0.152946 -0.289438 0.793481 -0.535295
0.699378 -0.133327 0.193713 -0.006439 0.984863 -0.173193
0.738590 -0.140863 0.191189 0.348094 0.916715 -0.196020
0.771798 -0.162522 0.185801 0.648427 0.720847 -0.244728
0.793945 -0.195006 0.178371 0.848689 0.427045 -0.311899
0.801651 -0.233369 0.170030 0.918424 0.080142 -0.387310
0.793761 -0.271771 0.162047 0.847041 -0.267037 -0.459517
0.771459 -0.304365 0.155639 0.645314 -0.561846 -0.517533
0.738146 -0.326189 0.151780 0.344096 -0.759209 -0.552416
0.698898 -0.333922 0.151057 -0.010773 -0.829127 -0.558916
0.659687 -0.326385 0.153582 -0.365398 -0.760949 -0.536119
0.626488 -0.304726 0.158969 -0.665639 -0.565081 -0.487411
0.604342 -0.272243 0.166399 -0.865841 -0.271371 -0.420240
0.596625 -0.233879 0.174740 -0.935606 0.075533 -0.344798
0.604526 -0.195478 0.182723 -0.864162 0.422895 -0.272622
0.626827 -0.162883 0.189132 -0.662557 0.717551 -0.214637
0.660131 -0.141059 0.192991 -0.361370 0.914914 -0.179724
0.700375 -0.133898 0.237003 0.015442 0.666097 0.745689
0.742824 -0.142055 0.234270 0.323923 0.606830 0.725791
0.778768 -0.165498 0.228439 0.585223 0.436415 0.683370
0.802727 -0.200659 0.220397 0.759331 0.180822 0.625019
0.811075 -0.242182 0.211369 0.820032 -0.120914 0.559343
0.802528 -0.283748 0.202728 0.757927 -0.422926 0.496628
0.778400 -0.319027 0.195791 0.582537 -0.679403 0.446120
0.742343 -0.342651 0.191614 0.320444 -0.851131 0.415754
0.699855 -0.351019 0.190833 0.011658 -0.911954 0.410108
0.657416 -0.342862 0.193565 -0.296762 -0.852657 0.429975
0.621472 -0.319418 0.199397 -0.558031 -0.682272 0.472335
0.597503 -0.284258 0.207439 -0.732200 -0.426740 0.530747
0.589154 -0.242735 0.216467 -0.792871 -0.124912 0.596393
0.597702 -0.201170 0.225107 -0.730766 0.177190 0.659200
0.621840 -0.165889 0.232044 -0.555315 0.433607 0.709616
0.657897 -0.142267 0.236221 -0.293283 0.605243 0.740013
3 0 1 2
3 3 0 4
3 5 6 7
3 6 5 8
3 9 10 6
3 11 12 9
3 13 14 11
3 15 16 13
3 17 18 15
3 19 20 17
3 21 22 19
3 23 24 25
3 0 2 23
3 6 8 26
3 27 21 19
3 0 23 25
3 9 6 26
3 28 27 19
3 4 0 25
3 9 26 29
3 11 9 29
3 11 29 30
3 11 30 31
3 11 31 32
3 33 28 19
3 13 11 32
3 34 33 19
3 13 32 35
3 36 34 19
3 13 35 37
3 36 19 17
3 15 13 37
3 38 36 17
3 15 37 39
3 40 38 17
3 15 39 40
3 40 17 15
3 2 1 41
3 2 41 42
3 1 0 43
3 1 43 41
3 0 3 44
3 0 44 43
3 3 4 45
3 3 45 44
3 4 46 47
3 4 47 45
3 46 48 49
3 46 49 47
3 48 7 50
3 48 50 49
3 7 6 51
3 7 51 50
3 6 10 52
3 6 52 51
3 10 9 53
3 10 53 52
3 9 12 54
3 9 54 53
3 12 11 55
3 12 55 54
3 11 14 56
3 11 56 55
3 14 13 57
3 14 57 56
3 13 16 58
3 13 58 57
3 16 15 59
3 16 59 58
3 15 18 60
3 15 60 59
3 18 17 61
3 18 61 60
3 17 20 62
3 17 62 61
3 20 19 63
3 20 63 62
3 19 22 64
3 19 64 63
3 22 21 65
3 22 65 64
3 21 27 66
3 21 66 65
3 27 28 67
3 27 67 66
3 28 68 69
3 28 69 67
3 68 70 71
3 68 71 69
3 70 72 73
3 70 73 71
3 72 74 75
3 72 75 73
3 74 25 76
3 74 76 75
3 25 24 77
3 25 77 76
3 24 23 78
3 24 78 77
3 23 2 42
3 23 42 78
3 36 38 79
3 36 79 80
3 38 40 81
3 38 81 79
3 40 39 82
3 40 82 81
3 39 37 83
3 39 83 82
3 37 35 84
3 37 84 83
3 35 32 85
3 35 85 84
3 32 31 86
3 32 86 85
3 31 30 87
3 31 87 86
3 30 29 88
3 30 88 87
3 29 26 89
3 29 89 88
3 26 8 90
3 26 90 89
3 8 5 91
3 8 91 90
3 5 92 93
3 5 93 91
3 92 33 94
3 92 94 93
3 33 34 95
3 33 95 94
3 34 36 80
3 34 80 95
3 42 41 43
3 43 44 45
3 50 51 91
3 90 91 51
3 51 52 53
3 53 54 55
3 55 56 57
3 57 58 59
3 59 60 61
3 61 62 63
3 63 64 65
3 76 77 78
3 78 42 43
3 89 90 51
3 63 65 66
3 76 78 43
3 89 51 53
3 63 66 67
3 76 43 45
3 88 89 53
3 88 53 55
3 87 88 55
3 86 87 55
3 85 86 55
3 63 67 94
3 85 55 57
3 63 94 95
3 84 85 57
3 63 95 80
3 83 84 57
3 61 63 80
3 83 57 59
3 61 80 79
3 82 83 59
3 61 79 81
3 81 82 59
3 59 61 81
3 28 92 7
3 68 7 48
3 70 48 46
3 72 46 4
3 74 4 25
3 68 28 7
3 7 92 5
3 28 33 92
3 70 68 48
3 72 70 46
3 74 72 4
3 94 67 93
3 93 50 91
3 67 50 93
3 67 69 50
3 50 69 49
3 49 69 71
3 71 47 49
3 71 73 47
3 73 75 45
3 75 76 45
3 47 73 45
3 96 97 98
3 99 100 96
3 101 102 103
3 102 101 104
3 105 106 102
3 107 108 105
3 109 110 107
3 111 112 109
3 113 114 111
3 115 116 113
3 117 118 115
3 119 120 121
3 96 98 119
3 102 104 122
3 123 117 115
3 96 119 121
3 105 102 122
3 124 123 115
3 99 96 121
3 105 122 125
3 107 105 125
3 107 125 126
3 107 126 127
3 107 127 128
3 129 124 115
3 109 107 128
3 130 129 115
3 109 128 131
3 132 130 115
3 109 131 133
3 132 115 113
3 111 109 133
3 134 132 113
3 111 133 135
3 136 134 113
3 111 135 136
3 136 113 111
3 98 97 137
3 98 137 138
3 97 96 139
3 97 139 137
3 96 100 140
3 96 140 139
3 100 99 141
3 100 141 140
3 99 142 143
3 99 143 141
3 142 144 145
3 142 145 143
3 144 103 146
3 144 146 145
3 103 102 147
3 103 147 146
3 102 106 148
3 102 148 147
3 106 105 149
3 106 149 148
3 105 108 150
3 105 150 149
3 108 107 151
3 108 151 150
3 107 110 152
3 107 152 151
3 110 109 153
3 110 153 152
3 109 112 154
3 109 154 153
3 112 111 155
3 112 155 154
3 111 114 156
3 111 156 155
3 114 113 157
3 114 157 156
3 113 116 158
3 113 158 157
3 116 115 159
3 116 159 158
3 115 118 160
3 115 160 159
3 118 117 161
3 118 161 160
3 117 123 162
3 117 162 161
3 123 124 163
3 123 163 162
3 124 164 165
3 124 165 163
3 164 166 167
3 164 167 165
3 166 168 169
3 166 169 167
3 168 170 171
3 168 171 169
3 170 121 172
3 170 172 171
3 121 120 173
3 121 173 172
3 120 119 174
3 120 174 173
3 119 98 138
3 119 138 174
3 132 134 175
3 132 175 176
3 134 136 177
3 134 177 175
3 136 135 178
3 136 178 177
3 135 133 179
3 135 179 178
3 133 131 180
3 133 180 179
3 131 128 181
3 131 181 180
3 128 127 182
3 128 182 181
3 127 126 183
3 127 183 182
3 126 125 184
3 126 184 183
3 125 122 185
3 125 185 184
3 122 104 186
3 122 186 185
3 104 101 187
3 104 187 186
3 101 188 189
3 101 189 187
3 188 129 190
3 188 190 189
3 129 130 191
3 129 191 190
3 130 132 176
3 130 176 191
3 138 137 139
3 139 140 141
3 146 147 187
3 186 187 147
3 147 148 149
3 149 150 151
3 151 152 153
3 153 154 155
3 155 156 157
3 157 158 159
3 159 160 161
3 172 173 174
3 174 138 139
3 185 186 147
3 159 161 162
3 172 174 139
3 185 147 149
3 159 162 163
3 172 139 141
3 184 185 149
3 184 149 151
3 183 184 151
3 182 183 151
3 181 182 151
3 159 163 190
3 181 151 153
3 159 190 191
3 180 181 153
3 159 191 176
3 179 180 153
3 157 159 176
3 179 153 155
3 157 176 175
3 178 179 155
3 157 175 177
3 177 178 155
3 155 157 177
3 124 188 103
3 164 103 144
3 166 144 142
3 168 142 99
3 170 99 121
3 164 124 103
3 103 188 101
3 124 129 188
3 166 164 144
3 168 166 142
3 170 168 99
3 190 163 189
3 189 146 187
3 163 146 189
3 163 165 146
3 146 165 145
3 145 165 167
3 167 143 145
3 167 169 143
3 169 171 141
3 171 172 141
3 143 169 141
3 192 193 194
3 195 192 194
3 196 195 194
3 197 196 194
3 198 197 194
3 199 198 194
3 200 199 194
3 201 200 194
3 202 201 194
3 203 202 194
3 204 203 194
3 205 204 194
3 206 205 194
3 207 206 194
3 208 207 194
3 193 208 194
3 209 210 193
3 192 209 193
3 211 209 192
3 195 211 192
3 212 211 195
3 196 212 195
3 213 212 196
3 197 213 196
3 214 213 197
3 198 214 197
3 215 214 198
3 199 215 198
3 216 215 199
3 200 216 199
3 217 216 200
3 201 217 200
3 218 217 201
3 202 218 201
3 219 218 202
3 203 219 202
3 220 219 203
3 204 220 203
3 221 220 204
3 205 221 204
3 222 221 205
3 206 222 205
3 223 222 206
3 207 223 206
3 224 223 207
3 208 224 207
3 210 224 208
3 193 210 208
3 225 226 210
3 209 225 210
3 227 225 209
3 211 227 209
3 228 227 211
3 212 228 211
3 229 228 212
3 213 229 212
3 230 229 213
3 214 230 213
3 231 230 214
3 215 231 214
3 232 231 215
3 216 232 215
3 233 232 216
3 217 233 216
3 234 233 217
3 218 234 217
3 235 234 218
3 219 235 218
3 236 235 219
3 220 236 219
3 237 236 220
3 221 237 220
3 238 237 221
3 222 238 221
3 239 238 222
3 223 239 222
3 240 239 223
3 224 240 223
3 226 240 224
3 210 226 224
3 241 242 226
3 225 241 226
3 243 241 225
3 227 243 225
3 244 243 227
3 228 244 227
3 245 244 228
3 229 245 228
3 246 245 229
3 230 246 229
3 247 246 230
3 231 247 230
3 248 247 231
3 232 248 231
3 249 248 232
3 233 249 232
3 250 249 233
3 234 250 233
3 251 250 234
3 235 251 234
3 252 251 235
3 236 252 235
3 253 252 236
3 237 253 236
3 254 253 237
3 238 254 237
3 255 254 238
3 239 255 238
3 256 255 239
3 240 256 239
3 242 256 240
3 226 242 240
3 241 243 242
3 243 244 242
3 244 245 242
3 245 246 242
3 246 247 242
3 247 248 242
3 248 249 242
3 249 250 242
3 250 251 242
3 251 252 242
3 252 253 242
3 253 254 242
3 254 255 242
3 255 256 242
3 257 258 259
3 257 259 260
3 257 260 261
3 257 261 262
3 257 262 263
3 257 263 264
3 257 264 265
3 257 265 266
3 257 266 267
3 257 267 268
3 257 268 269
3 257 269 270
3 257 270 271
3 257 271 272
3 257 272 273
3 257 273 258
3 258 274 275
3 258 275 259
3 259 275 276
3 259 276 260
3 260 276 277
3 260 277 261
3 261 277 278
3 261 278 262
3 262 278 279
3 262 279 263
3 263 279 280
3 263 280 264
3 264 280 281
3 264 281 265
3 265 281 282
3 265 282 266
3 266 282 283
3 266 283 267
3 267 283 284
3 267 284 268
3 268 284 285
3 268 285 269
3 269 285 286
3 269 286 270
3 270 286 287
3 270 287 271
3 271 287 288
3 271 288 272
3 272 288 289
3 272 289 273
3 273 289 274
3 273 274 258
3 274 290 291
3 274 291 275
3 275 291 292
3 275 292 276
3 276 292 293
3 276 293 277
3 277 293 294
3 277 294 278
3 278 294 295
3 278 295 279
3 279 295 296
3 279 296 280
3 280 296 297
3 280 297 281
3 281 297 298
3 281 298 282
3 282 298 299
3 282 299 283
3 283 299 300
3 283 300 284
3 284 300 301
3 284 301 285
3 285 301 302
3 285 302 286
3 286 302 303
3 286 303 287
3 287 303 304
3 287 304 288
3 288 304 305
3 288 305 289
3 289 305 290
3 289 290 274
3 290 306 307
3 290 307 291
3 291 307 308
3 291 308 292
3 292 308 309
3 292 309 293
3 293 309 310
3 293 310 294
3 294 310 311
3 294 311 295
3 295 311 312
3 295 312 296
3 296 312 313
3 296 313 297
3 297 313 314
3 297 314 298
3 298 314 315
3 298 315 299
3 299 315 316
3 299 316 300
3 300 316 317
3 300 317 301
3 301 317 318
3 301 318 302
3 302 318 319
3 302 319 303
3 303 319 320
3 303 320 304
3 304 320 321
3 304 321 305
3 305 321 306
3 305 306 290
3 306 308 307
3 306 309 308
3 306 310 309
3 306 311 310
3 306 312 311
3 306 313 312
3 306 314 313
3 306 315 314
3 306 316 315
3 306 317 316
3 306 318 317
3 306 319 318
3 306 320 319
3 306 321 320
