ply
format ascii 1.0
comment Created by Blender 2.79 (sub 0) - www.blender.org, source file: ''
element vertex 468
property float x
property float y
property float z
property float nx
property float ny
property float nz
element face 732
property list uchar uint vertex_indices
end_header
-0.538982 -0.201164 1.800810 -0.131626 -0.456069 0.880123
-0.565974 -0.229476 1.782102 -0.131626 -0.456069 0.880123
-0.532242 -0.242601 1.780346 -0.125858 -0.439680 0.889248
-0.502416 -0.210177 1.799676 -0.120426 -0.424268 0.897488
-0.497479 -0.252653 1.780259 -0.120426 -0.424268 0.897488
-0.470845 -0.214209 1.793904 -0.089358 -0.447340 0.889859
-0.494147 -0.244353 1.776410 -0.089358 -0.447340 0.889859
-0.474175 -0.253377 1.773880 0.291971 -0.617969 0.729942
-0.574042 -0.193755 1.810796 -0.139286 -0.414258 0.899411
-0.597344 -0.223899 1.793302 -0.153294 -0.419782 0.894559
-0.566560 -0.236837 1.792111 -0.139286 -0.414258 0.899411
-0.602282 -0.181422 1.812719 -0.169225 -0.425947 0.888760
-0.631525 -0.212390 1.792308 -0.169225 -0.425947 0.888760
-0.636707 -0.161830 1.801047 -0.221564 -0.427808 0.876278
-0.663117 -0.188686 1.781259 -0.214240 -0.413556 0.884884
-0.630552 -0.204722 1.781663 -0.221564 -0.427808 0.876278
-0.669908 -0.143960 1.799509 -0.205359 -0.396313 0.894833
-0.697611 -0.173709 1.779975 -0.205359 -0.396313 0.894833
-0.699839 -0.119129 1.777638 0.394147 0.017304 0.918882
-0.709327 -0.159613 1.782471 0.394147 0.017304 0.918882
-0.694279 -0.165408 1.776126 0.394147 0.017304 0.918882
-0.760224 0.101160 1.544619 -0.944609 0.132145 0.300302
-0.752924 0.141990 1.549607 -0.944609 0.132176 0.300302
-0.764377 0.136377 1.516052 -0.975036 -0.146214 0.167028
-0.755028 0.074819 1.572553 -0.944639 0.132145 0.300272
-0.746736 0.106914 1.584515 -0.944639 0.132145 0.300302
-0.751624 0.039712 1.598719 -0.944639 0.132145 0.300272
-0.744162 0.076733 1.605897 -0.944639 0.132176 0.300241
-0.746472 0.008142 1.628819 -0.944639 0.132145 0.300272
-0.739965 0.045478 1.632858 -0.944639 0.132145 0.300272
-0.741820 -0.020018 1.655851 -0.944639 0.132176 0.300272
-0.736856 0.011733 1.657493 -0.944639 0.132176 0.300241
-0.740363 -0.050961 1.674054 -0.944609 0.132176 0.300302
-0.732391 -0.016133 1.683798 -0.944609 0.132176 0.300333
-0.735432 -0.075979 1.700577 -0.944639 0.132176 0.300302
-0.723822 -0.038839 1.720747 -0.944609 0.132176 0.300302
-0.730952 -0.098033 1.724374 -0.944639 0.132145 0.300302
-0.724292 -0.071238 1.733536 -0.944639 0.132115 0.300272
-0.728885 -0.127661 1.743917 -0.947844 0.080294 0.308390
-0.720171 -0.096892 1.757782 -0.944609 0.132176 0.300333
-0.719063 -0.155551 1.774640 -0.940825 -0.005005 0.338816
-0.720504 -0.124315 1.768804 -0.948210 0.015473 0.317209
-0.241337 -0.074484 1.516495 0.596088 -0.784845 0.169347
-0.245578 -0.062555 1.550086 0.773919 -0.559587 0.296426
-0.268621 -0.097049 1.545132 0.773919 -0.559587 0.296426
-0.274205 -0.083616 1.585073 0.773919 -0.559587 0.296396
-0.290506 -0.112487 1.573128 0.773919 -0.559587 0.296396
-0.296888 -0.103630 1.606510 0.773919 -0.559587 0.296396
-0.317183 -0.135486 1.599362 0.773919 -0.559587 0.296396
-0.321463 -0.123303 1.633535 0.773919 -0.559587 0.296426
-0.342651 -0.154730 1.629530 0.773919 -0.559587 0.296396
-0.346988 -0.145523 1.658236 0.773919 -0.559587 0.296396
-0.365411 -0.171856 1.656625 0.773949 -0.559557 0.296396
-0.369410 -0.162567 1.684601 0.773949 -0.559557 0.296396
-0.387829 -0.193189 1.674884 0.773919 -0.559587 0.296426
-0.391176 -0.173062 1.721619 0.773919 -0.559587 0.296426
-0.408614 -0.207856 1.701464 0.773919 -0.559587 0.296396
-0.413235 -0.196770 1.734458 0.773949 -0.559587 0.296396
-0.427031 -0.220695 1.725313 0.773949 -0.559587 0.296396
-0.433884 -0.212454 1.758761 0.773919 -0.559587 0.296396
-0.448971 -0.240658 1.744910 0.737907 -0.601978 0.305063
-0.452597 -0.232477 1.769825 0.690237 -0.651662 0.314402
-0.653571 0.124945 1.989424 -0.401044 -0.326304 0.855953
-0.651243 0.100352 1.981140 -0.401044 -0.326304 0.855953
-0.634484 0.116609 1.995189 -0.400922 -0.326212 0.856044
-0.627110 0.082676 1.985716 -0.400800 -0.326090 0.856136
-0.608810 0.103157 2.002085 -0.400708 -0.326243 0.856105
-0.605082 0.072812 1.992259 -0.400647 -0.326426 0.856075
-0.574936 0.088739 2.012440 -0.400678 -0.326395 0.856075
-0.576382 0.044332 1.994834 -0.400678 -0.326365 0.856075
-0.544076 0.070911 2.020087 -0.400769 -0.326365 0.856044
-0.539695 0.036874 2.009161 -0.400830 -0.326395 0.856014
-0.512565 0.059388 2.030449 -0.272683 -0.327830 0.904508
-0.508557 0.023913 2.018800 -0.156072 -0.324015 0.933073
-0.473620 0.043550 2.031464 -0.039857 -0.429731 0.902066
-0.344426 -0.000139 1.994485 0.066713 -0.514420 0.854915
-0.343659 -0.023450 1.980393 0.066744 -0.514573 0.854823
-0.324910 -0.007340 1.988626 0.066744 -0.514573 0.854823
-0.372231 0.007935 2.001510 0.066530 -0.514328 0.854976
-0.373291 -0.019487 1.985099 0.066683 -0.514267 0.855007
-0.406603 0.020986 2.012032 0.066408 -0.514389 0.854946
-0.395982 -0.011349 1.991751 0.066347 -0.514420 0.854946
-0.441177 0.029493 2.019837 0.071841 -0.519395 0.851466
-0.436398 -0.012012 1.994493 0.066439 -0.514389 0.854946
-0.467961 0.008002 2.008987 0.076907 -0.524064 0.848170
-0.675888 0.133230 1.951325 -0.944609 0.132145 0.300333
-0.674728 0.108761 1.965737 -0.944609 0.132145 0.300363
-0.664347 0.123802 1.991766 -0.944609 0.132145 0.300363
-0.692009 0.142079 1.896711 -0.944578 0.132481 0.300333
-0.692240 0.114642 1.908060 -0.944639 0.132115 0.300241
-0.711814 0.159477 1.826753 -0.944517 0.132694 0.300394
-0.712526 0.118403 1.842709 -0.944456 0.133091 0.300455
-0.730504 0.168005 1.764208 -0.944609 0.132176 0.300302
-0.731739 0.126788 1.778469 -0.944609 0.132176 0.300302
-0.748817 0.182151 1.700377 -0.944609 0.132176 0.300302
-0.749074 0.138597 1.718739 -0.944639 0.132145 0.300302
-0.766454 0.194915 1.639279 -0.944609 0.132206 0.300302
-0.764102 0.154193 1.664608 -0.944609 0.132176 0.300302
-0.781997 0.197270 1.589352 -0.976440 -0.108097 0.186621
-0.778835 0.174121 1.609490 -0.944609 0.132206 0.300302
-0.320332 -0.014996 1.992619 0.773949 -0.559526 0.296457
-0.323368 -0.032996 1.966572 0.773949 -0.559526 0.296457
-0.305636 -0.016130 1.952114 0.773949 -0.559557 0.296426
-0.306890 -0.040796 1.908816 0.773949 -0.559557 0.296365
-0.288093 -0.020831 1.897422 0.774132 -0.559252 0.296457
-0.289909 -0.052036 1.843380 0.774438 -0.558763 0.296609
-0.262029 -0.021897 1.827362 0.774224 -0.559099 0.296518
-0.270497 -0.059198 1.779052 0.773949 -0.559557 0.296396
-0.242887 -0.028597 1.764731 0.773949 -0.559557 0.296396
-0.250046 -0.062600 1.719236 0.773949 -0.559557 0.296396
-0.220130 -0.030984 1.700806 0.773949 -0.559557 0.296426
-0.228616 -0.061678 1.665022 0.773949 -0.559557 0.296426
-0.198805 -0.033903 1.639621 0.773919 -0.559557 0.296426
-0.204400 -0.057430 1.609815 0.773919 -0.559587 0.296426
-0.186161 -0.042896 1.589631 0.623432 -0.759056 0.187414
-1.621029 1.643415 -5.339127 -0.657979 -0.717978 0.226966
-1.989639 2.001245 -5.828545 -0.670766 0.211219 -0.710929
-2.352638 1.434749 -6.075176 -0.699484 -0.342387 -0.627247
-2.134871 1.411099 -5.853401 -0.123844 -0.989166 0.078463
-1.599296 1.631902 -5.364919 -0.163213 -0.986084 0.030915
-1.572280 1.633492 -5.388089 0.086245 -0.871303 -0.483047
-1.953817 2.088655 -5.810580 -0.064425 0.265267 -0.962004
-1.491342 1.728764 -5.407056 0.635487 -0.097934 -0.765862
-1.476321 1.779054 -5.392399 0.686972 0.029969 -0.726035
-1.464727 1.821921 -5.378833 0.715751 0.112156 -0.689261
-1.454365 1.895341 -5.347137 0.753502 0.265419 -0.601428
-1.519029 1.673073 -5.413443 0.464858 -0.399060 -0.790307
-1.745825 2.093741 -5.659807 0.639943 -0.211676 -0.738639
-1.460894 1.975348 -5.296724 0.328776 0.938597 0.104434
-1.618730 1.754701 -5.279145 -0.788171 0.207343 0.579455
-1.594014 1.803017 -5.274224 -0.728935 0.330424 0.599536
-1.571921 1.843744 -5.271191 -0.678335 0.414838 0.606372
-1.526026 1.909932 -5.275186 -0.531571 0.583514 0.613910
-1.636722 1.697034 -5.295268 -0.873135 -0.110477 0.474746
-1.800029 2.104778 -5.605368 -0.312357 0.702139 0.639851
0.080826 1.506943 -1.563200 0.992645 0.118412 -0.023927
0.036759 1.601149 -2.079426 0.388043 0.921140 -0.030091
0.054788 1.639245 -2.001911 -0.214270 -0.458449 -0.862484
-0.025508 1.548985 -1.559131 -0.662099 0.735343 0.144475
0.072551 1.473455 -1.140497 0.393933 0.890927 0.225929
0.239497 1.226763 -1.171720 0.904355 0.422895 0.057314
0.169573 1.374956 -2.116565 0.932829 0.348186 -0.092593
-0.218871 1.411254 -1.170607 -0.362651 0.920896 0.142766
-0.216797 1.527720 -2.101779 -0.455977 0.887265 0.069369
-0.677077 0.516658 1.691221 -0.901456 0.412091 0.132298
-0.708241 0.485066 1.636466 -0.857112 0.465499 0.220496
-0.559129 0.360751 2.091620 -0.775079 -0.013092 0.631703
-0.503255 0.463146 2.120576 -0.738365 0.498245 0.454451
-0.660171 0.575994 1.670225 -0.965758 0.245888 0.082492
-0.663754 0.611824 1.616512 -0.872005 0.375439 0.314035
-0.636164 0.689193 1.453572 -0.730338 0.654134 0.196722
-0.772502 0.400445 1.394906 -0.947172 0.251106 0.199377
-0.723987 0.511357 1.558032 -0.788232 0.451125 0.418500
-0.692555 0.604701 1.539386 -0.883297 0.361705 0.298166
-0.646242 0.556679 1.643325 -0.985778 -0.003540 -0.167943
-0.649616 0.537503 1.651376 -0.952116 0.169225 -0.254555
0.202146 0.361171 0.615145 0.971099 -0.085452 0.222816
-0.050771 0.109950 1.393153 0.848842 -0.487197 0.205084
0.118980 0.037618 0.554049 0.868496 -0.453261 0.200568
0.051185 0.412539 1.451903 0.980926 -0.034700 0.191168
-0.229234 0.227969 2.090819 0.553178 -0.552873 0.623096
-0.037482 0.215087 1.634836 0.941527 -0.258431 0.216132
-0.037842 0.259369 1.689668 0.936125 -0.327494 0.127842
-0.198472 0.340473 2.119836 0.885006 -0.155919 0.438643
-0.009018 0.313907 1.668644 0.867153 -0.491836 0.078036
0.018163 0.337354 1.614855 0.890255 -0.333842 0.309763
-0.008243 0.223271 1.556294 0.882717 -0.221381 0.414411
0.033677 0.312394 1.537622 0.888821 -0.351543 0.293863
-0.043371 0.293492 1.649904 0.802789 -0.537126 -0.258827
-0.032555 0.309672 1.641834 0.707755 -0.685171 -0.172063
-0.508511 0.365344 2.166732 -0.754112 -0.403607 0.518021
-0.262240 0.266220 2.166133 -0.124454 -0.902676 0.411847
-0.792807 0.206012 1.467730 -0.935484 -0.308603 0.172063
-0.807213 0.235088 1.364201 -0.966521 -0.000305 0.256478
-0.447400 0.498496 2.152711 -0.492599 0.717338 0.492660
-0.502263 0.788910 1.479620 -0.445875 0.846644 0.290384
-0.380455 0.510197 2.174091 -0.113529 0.858150 0.500626
-0.345992 0.828651 1.496863 -0.076296 0.935942 0.343699
-0.312617 0.496462 2.181494 0.322977 0.816553 0.478378
-0.191140 0.802365 1.502675 0.365001 0.858180 0.360942
-0.254210 0.459384 2.173784 0.677358 0.565752 0.470138
-0.061283 0.714056 1.496171 0.705161 0.637867 0.309519
-0.214129 0.404605 2.152144 0.865902 0.187994 0.463485
0.023811 0.577167 1.478343 0.909452 0.313181 0.273415
-0.170520 -0.044457 1.466218 0.639943 -0.695791 0.326029
-0.140421 -0.033293 1.362582 0.782311 -0.589129 0.202185
-0.011277 -0.168441 0.509985 0.705069 -0.700552 0.109958
0.164429 0.601301 0.648484 0.951323 0.248238 0.182470
0.063284 0.849716 0.684391 0.862606 0.454237 0.222602
-0.089419 1.059872 0.710291 0.367809 0.882900 0.291757
-0.345238 1.014145 0.685383 -0.308725 0.927458 0.210913
-0.590420 0.905125 0.650317 -0.526597 0.831568 0.176489
-0.784112 0.758137 0.617541 -0.754173 0.620350 0.215217
-0.948537 0.467291 0.556642 -0.927000 0.295450 0.230964
-0.997535 0.228524 0.512381 -0.994140 -0.022279 0.105533
-0.464953 0.374763 2.237298 -0.713401 -0.316599 0.625111
-0.419823 0.400410 2.285745 -0.635029 -0.052889 0.770653
-0.375632 0.416788 2.322555 -0.411969 0.166509 0.895840
-0.343957 0.417717 2.326964 0.144871 0.409314 0.900784
-0.321778 0.395112 2.322424 0.383526 -0.183721 0.905057
-0.301408 0.352750 2.285458 0.380749 -0.522141 0.763115
-0.286834 0.303069 2.236865 0.269356 -0.739372 0.617023
0.225915 0.121577 -0.384236 0.901608 -0.239662 -0.360057
0.159430 -0.138470 -0.879714 0.972839 0.222205 0.064669
0.257953 0.206327 -1.345689 0.927488 -0.347636 -0.137364
0.112060 -0.023333 -1.394848 0.736076 -0.613056 -0.286874
0.080320 -0.107912 -0.433345 0.709983 -0.684591 0.165014
0.166228 -0.135493 -1.340678 -0.630177 0.608417 -0.482345
0.059800 -0.085673 -0.053190 0.884884 -0.463332 0.047548
0.020840 -0.119937 0.328074 0.870907 -0.490127 0.035279
0.170639 0.050788 0.390977 0.890011 -0.390606 -0.235054
0.244081 0.355920 0.448325 0.979034 -0.025452 -0.202033
0.195901 0.603360 0.452353 0.977081 0.147496 0.153386
0.143398 0.061450 0.359850 0.881802 -0.377209 -0.283059
0.040860 -0.101243 0.147876 0.826106 -0.562670 0.029847
0.194391 0.075065 0.205065 0.891659 -0.388287 -0.232734
0.216842 0.366583 0.417199 0.976135 -0.027314 -0.215308
0.266580 0.375251 0.262158 0.981994 -0.032594 -0.186071
0.218477 0.643262 0.278468 0.979675 0.128239 0.154149
0.167152 0.085728 0.173939 0.881130 -0.384838 -0.274758
0.216049 0.092158 0.021716 0.892178 -0.395947 -0.217231
0.239341 0.385914 0.231032 0.977386 -0.027436 -0.209571
0.289283 0.394756 0.074311 0.980407 -0.039644 -0.192877
0.241429 0.691201 0.098632 0.982177 0.125217 0.139988
0.188808 0.102820 -0.009411 0.880551 -0.369976 -0.296152
0.084999 -0.059321 -0.239209 0.863918 -0.498489 0.071383
0.241680 0.123099 -0.165865 0.895932 -0.380352 -0.229347
0.315091 0.426828 -0.112040 0.985443 -0.018891 -0.168889
0.262042 0.405418 0.043185 0.976104 -0.013520 -0.216803
0.265821 0.733822 -0.089034 0.568529 0.798883 0.196265
0.214439 0.133762 -0.196992 0.897458 -0.345317 -0.274331
0.242996 0.094033 -0.362271 0.879421 -0.409192 -0.243202
0.287851 0.437491 -0.143166 0.962828 0.004517 -0.270028
0.314867 0.396431 -0.295721 0.981811 -0.076327 -0.173650
0.281032 0.763594 -0.270332 0.977355 0.180731 0.109897
-0.987855 0.286059 0.330524 -0.976806 0.212500 0.025819
-0.993808 0.338401 -0.050631 -0.967650 0.247841 0.046419
-0.977349 0.512848 0.393765 -0.897397 0.368267 -0.242897
-0.818689 0.783682 0.450909 -0.722037 0.665792 -0.188025
-0.612511 0.928744 0.454317 -0.621601 0.769433 0.146764
-0.978436 0.547123 0.207914 -0.901181 0.360820 -0.240089
-0.990095 0.313712 0.150380 -0.990844 0.131077 0.031983
-0.950447 0.501718 0.362507 -0.897580 0.360607 -0.253517
-0.822302 0.813523 0.264803 -0.721824 0.671773 -0.166326
-0.791790 0.772552 0.419650 -0.704856 0.672201 -0.226478
-0.601878 0.973450 0.280460 -0.640004 0.753471 0.150517
-0.982980 0.574761 0.024628 -0.903623 0.363018 -0.227241
-0.951537 0.535995 0.176656 -0.901273 0.358959 -0.242500
-0.825947 0.843632 0.077020 -0.726920 0.664449 -0.173406
-0.795401 0.802393 0.233545 -0.706015 0.672903 -0.220649
-0.585969 1.024227 0.100642 -0.617450 0.767724 0.171300
-0.980814 0.615147 -0.162896 -0.899472 0.368572 -0.234596
-0.994502 0.375174 -0.236587 -0.975402 0.204779 0.081301
-0.956079 0.563633 -0.006630 -0.892483 0.362194 -0.268715
-0.799046 0.832502 0.045762 -0.734428 0.649068 -0.198248
-0.823120 0.884952 -0.109276 -0.735710 0.651723 -0.184210
-0.574818 1.072176 -0.086993 0.164617 0.969085 0.183691
-1.002720 0.595428 -0.359246 -0.905667 0.338450 -0.255287
-1.025602 0.337217 -0.430659 -0.986877 -0.010102 0.161046
-0.953913 0.604019 -0.194154 -0.884579 0.387494 -0.259499
-0.565923 1.104489 -0.268275 -0.577380 0.809473 0.106449
-0.844783 0.863185 -0.292905 -0.764580 0.621906 -0.169134
-0.796219 0.873824 -0.140534 -0.701621 0.664052 -0.258309
-0.001525 0.244890 -2.331097 0.739952 -0.601306 -0.301431
0.122558 0.448886 -2.289133 0.906491 -0.340465 -0.249641
0.353018 0.573713 -1.276274 0.993011 -0.101291 -0.060366
0.209827 0.769363 -2.226957 0.975982 -0.095370 -0.195746
0.342436 0.921865 -1.217205 0.984344 0.176031 -0.008209
0.211565 1.069612 -2.171466 0.984863 0.099490 -0.141850
-0.504519 1.262760 -1.215148 -0.599750 0.796442 0.076968
-0.459521 1.334946 -2.145784 -0.674245 0.735618 0.064913
-0.753582 1.019114 -1.273586 -0.794458 0.606952 0.019929
-0.666989 1.116038 -2.193397 -0.811304 0.582751 0.046236
-0.939825 0.688428 -1.342780 -0.923582 0.378826 -0.058901
-0.826499 0.824125 -2.252818 -0.936857 0.349620 0.000336
-0.993918 0.421817 -1.392162 -0.974944 0.052614 -0.216071
-0.878341 0.591564 -2.297536 -0.997040 0.038606 -0.066103
-0.971412 0.603496 -0.381328 -0.819910 0.447188 -0.357372
-0.814986 0.860843 -0.326714 -0.715720 0.643422 -0.271554
-0.280275 1.252985 -0.223734 -0.348125 0.921812 0.170324
0.011148 1.315184 -0.193624 0.365032 0.901944 0.230628
0.178093 1.068492 -0.224847 0.890378 0.421216 0.172460
0.291614 0.415442 -0.329401 0.959990 -0.034791 -0.277810
-1.105687 0.370736 -0.876641 -0.545549 0.835139 0.069552
-1.110453 0.378366 -1.337578 0.873928 0.002960 -0.486038
-1.427073 1.475884 -5.038565 -0.520554 0.744804 0.417402
-1.521188 1.383980 -4.991946 -0.520554 0.744804 0.417402
-1.338345 1.437141 -4.858781 -0.520554 0.744804 0.417402
-1.236721 1.117537 -4.400002 -0.578356 0.768426 0.273782
-1.321869 1.043205 -4.390509 -0.617603 0.741081 0.263283
-1.238210 1.074752 -4.283067 -0.572558 0.772240 0.275246
-1.124690 1.205233 -4.424748 -0.552538 0.784967 0.280160
-1.066318 1.146013 -4.143719 -0.552538 0.784967 0.280160
-1.141054 1.385092 -4.997048 0.773125 0.403516 -0.489273
-1.227176 1.306417 -5.198014 0.773125 0.403516 -0.489273
-1.264457 1.432985 -5.152543 0.773125 0.403516 -0.489273
-0.725314 0.915916 -4.524056 0.856868 0.329600 -0.396344
-0.773406 0.873351 -4.648182 0.857051 0.284402 -0.429579
-0.789414 0.979012 -4.610159 0.857051 0.323923 -0.400616
-0.681549 1.026854 -4.324495 0.855983 0.348766 -0.381603
-0.823964 1.112100 -4.566036 0.855983 0.348735 -0.381603
-1.017873 2.037772 -4.847294 0.800409 -0.211158 -0.560991
-1.000866 1.856681 -4.754852 0.454970 0.870876 -0.185858
-1.138970 1.893040 -4.965603 0.800439 -0.211158 -0.560961
-1.062618 2.063631 -4.920866 0.800409 -0.211127 -0.560991
-1.049974 2.142209 -4.932404 0.800409 -0.211158 -0.560991
-0.815011 0.976261 -2.925076 -0.933836 0.321940 0.155675
-0.860388 0.777989 -2.966596 -0.996918 0.020966 0.075381
-0.679988 1.225656 -2.877707 -0.812006 0.550554 0.193579
-0.505522 1.414648 -2.846337 -0.638264 0.743095 0.200964
-0.307808 1.540182 -2.830608 -0.441694 0.881069 0.169042
-0.105694 1.611072 -2.827400 0.370342 0.927549 -0.049257
-0.006168 1.427387 -2.874722 0.888455 0.402661 -0.220099
0.051838 1.206229 -2.927852 0.951384 0.165929 -0.259468
0.048238 0.953346 -2.984221 0.950346 -0.071261 -0.302805
-0.026785 0.681512 -3.040347 0.883053 -0.307993 -0.354015
-0.132162 0.505679 -3.073109 0.723167 -0.561327 -0.402326
-0.912323 1.131257 -3.474579 -0.916990 0.293039 0.270638
-0.951545 0.966124 -3.514628 -0.981994 -0.002441 0.188726
-0.800855 1.340064 -3.440379 -0.798914 0.520524 0.301218
-0.658128 1.501155 -3.429057 -0.636860 0.712455 0.294595
-0.495972 1.614572 -3.437473 -0.457625 0.848506 0.265633
-0.328327 1.689710 -3.459039 0.321635 0.946745 -0.013153
-0.253506 1.534509 -3.526342 0.859249 0.420698 -0.290963
-0.210110 1.353217 -3.593256 0.911100 0.210822 -0.354137
-0.215490 1.146772 -3.654912 0.910031 -0.030244 -0.413373
-0.278730 0.922041 -3.706795 0.843593 -0.270547 -0.463790
-0.366180 0.772834 -3.729162 0.682363 -0.530900 -0.502457
-0.654652 1.055759 -4.361422 0.637776 -0.492294 -0.592303
-0.586847 1.173614 -4.345415 0.796228 -0.230750 -0.559191
-0.537587 1.346262 -4.303739 0.861019 0.008057 -0.508438
-0.531944 1.503817 -4.251460 0.861934 0.238990 -0.447127
-0.561286 1.645846 -4.191841 0.823084 0.415265 -0.387341
-0.610841 1.776297 -4.128849 0.307840 0.950194 -0.048250
-0.742874 1.702081 -4.106515 -0.483749 0.809198 0.333415
-0.867474 1.607726 -4.093813 -0.625568 0.688284 0.367260
-0.975976 1.482029 -4.097776 -0.775597 0.497360 0.388623
-1.061356 1.320561 -4.122463 -0.891476 0.265633 0.366924
-1.093042 1.191526 -4.155459 -0.958983 -0.032289 0.281594
-1.327503 1.441942 -4.743721 -0.916166 -0.099796 0.388134
-1.306131 1.527585 -4.719001 -0.843043 0.223701 0.489090
-1.251774 1.629861 -4.706408 -0.717154 0.473556 0.511246
-1.181936 1.710295 -4.712362 -0.574450 0.657063 0.488083
-1.097533 1.780755 -4.731200 -0.490158 0.737724 0.464156
-0.978093 1.749244 -4.814914 0.758232 0.417341 -0.500870
-0.961241 1.652071 -4.867037 0.770470 0.314280 -0.554552
-0.963422 1.553786 -4.908478 0.770684 0.094943 -0.630085
-0.994020 1.445246 -4.937745 0.705588 -0.166448 -0.688772
-1.039151 1.365864 -4.945792 0.535874 -0.458632 -0.708823
-1.544094 1.647951 -5.405128 0.176183 -0.688620 -0.703360
-1.634171 1.666289 -5.314676 -0.844203 -0.468520 0.260262
-0.701203 -0.247979 1.449951 -0.837733 -0.495041 0.230384
-0.658870 0.040337 1.528843 -0.917753 -0.395703 -0.033021
-0.843074 -0.079100 1.240679 -0.926481 -0.258400 0.273537
-0.760381 -0.211538 1.223454 -0.724723 -0.686605 0.057314
-0.381627 -0.071252 1.528170 0.343638 -0.938200 -0.040407
-0.332732 -0.284509 1.239439 0.425062 -0.848018 0.316446
-0.551160 -0.308370 1.449586 0.330119 -0.933531 0.139561
-0.484187 -0.322705 1.222783 0.107486 -0.980316 0.165532
-0.634447 -0.298807 1.466363 -0.371990 -0.922300 0.104740
-0.634357 -0.297081 1.217170 -0.370159 -0.928922 0.007782
-0.827153 -0.181771 0.453297 -0.706076 -0.708090 -0.003571
-0.639558 -0.305340 0.444589 -0.372967 -0.927641 -0.018159
-0.418631 -0.346199 0.452305 0.019044 -0.999786 -0.003265
-0.198008 -0.298126 0.475269 0.408612 -0.910916 0.056612
-0.952858 0.005697 0.477102 -0.922513 -0.384136 0.036744
-0.644952 -0.234093 1.727238 -0.766320 -0.633259 0.108097
-0.671571 -0.197918 1.794019 -0.630665 -0.014771 0.775903
-0.543091 -0.247960 1.785291 0.245674 -0.521165 0.817316
-0.580945 -0.259855 1.727083 -0.147923 -0.953642 0.261940
-0.614605 -0.251073 1.724769 -0.349315 -0.891995 0.286843
-0.097158 -0.168977 -1.433803 0.379498 -0.895291 -0.233222
0.076274 -0.250229 -0.904446 -0.363109 -0.931059 -0.035188
-0.128430 -0.253274 -0.472221 0.351726 -0.935850 0.020508
-0.802913 -0.038061 -1.458383 -0.700369 -0.695791 -0.159093
-0.738154 0.200614 -2.364825 -0.717612 -0.657186 -0.230476
-0.572964 0.088109 -2.379855 -0.355174 -0.885433 -0.299722
-0.592429 -0.176707 -1.468153 -0.362682 -0.914029 -0.181677
-0.344545 -0.222552 -1.459496 0.031800 -0.981323 -0.189611
-0.374964 0.057016 -2.378720 0.067995 -0.939604 -0.335398
-0.174303 0.112069 -2.361596 0.451369 -0.827174 -0.334666
-0.944097 0.171912 -1.431746 -0.899503 -0.398328 -0.179449
-0.845389 0.377403 -2.335914 -0.934202 -0.324900 -0.147130
-0.834730 -0.122906 -0.496931 -0.706351 -0.705100 -0.062014
-0.975924 0.087839 -0.470163 -0.901944 -0.431196 0.023713
-0.376360 -0.307397 -0.498044 0.020722 -0.997711 -0.063906
-0.624243 -0.261553 -0.506701 -0.372570 -0.925230 -0.071566
-1.123244 0.232572 -0.901533 -0.384838 -0.922269 -0.036073
-0.834460 0.598381 -3.008415 -0.941771 -0.332896 -0.046937
-0.746361 0.451903 -3.046697 -0.727866 -0.658681 -0.190558
-0.277100 0.389963 -3.089930 0.443861 -0.788049 -0.426527
-0.444720 0.339107 -3.090811 0.066225 -0.911924 -0.404950
-0.609503 0.360860 -3.075643 -0.361736 -0.874508 -0.323008
-0.932364 0.820629 -3.564183 -0.936521 -0.346843 0.050630
-0.862659 0.704626 -3.618152 -0.740135 -0.660756 -0.124821
-0.484347 0.672690 -3.728382 0.400891 -0.766656 -0.501480
-0.620193 0.624563 -3.707021 0.024751 -0.898190 -0.438856
-0.753039 0.635777 -3.668309 -0.392834 -0.867550 -0.304971
-1.028271 0.993861 -4.247140 -0.732841 -0.674642 -0.088229
-0.946427 0.943532 -4.294203 -0.400708 -0.861721 -0.311167
-0.846684 0.937626 -4.332465 -0.000458 -0.874966 -0.484176
-0.744227 0.977033 -4.356059 0.362468 -0.733451 -0.574999
-1.079755 1.080943 -4.198411 -0.919279 -0.373943 0.122715
-1.283195 1.320028 -4.822682 -0.699576 -0.713065 -0.045442
-1.317742 1.373291 -4.779278 -0.872219 -0.448531 0.195013
-1.097047 1.315068 -4.933952 0.251900 -0.718375 -0.648396
-1.163754 1.288519 -4.906395 -0.081454 -0.858425 -0.506394
-1.229121 1.290262 -4.867321 -0.419416 -0.858638 -0.294595
-1.489612 2.174698 -5.365745 0.713828 0.207770 0.668752
-1.479215 2.456555 -5.412538 0.713004 0.054415 0.698996
-1.444578 2.943854 -5.476836 0.715232 0.170507 0.677725
-1.470660 3.518720 -5.619378 0.673940 0.460219 0.577868
-1.566441 3.794133 -5.770608 0.049104 0.987274 -0.151250
-1.637423 3.586186 -5.799138 -0.650197 0.283151 -0.704978
-1.691779 3.068519 -5.748312 -0.707602 0.008484 -0.706534
0.189374 1.764395 -1.255803 0.362896 0.313120 0.877621
0.255532 2.091095 -1.424728 0.225043 0.513565 0.827967
0.311230 2.243612 -1.545010 0.270821 0.613178 0.742027
0.382496 2.443562 -1.748579 0.301431 0.699606 0.647816
0.425524 2.568269 -1.912468 0.327067 0.864284 -0.382122
0.355208 2.390973 -1.918173 -0.009583 0.072207 -0.997314
0.260469 2.158454 -1.991539 0.061434 0.249001 -0.966521
0.127383 1.828170 -2.056826 0.168432 0.507859 -0.844783
0.108124 1.785725 -2.121556 0.141820 0.444319 -0.884548
0.080815 1.716930 -2.124400 -0.139164 -0.259468 -0.955657
-0.654356 0.518740 1.646234 -0.890591 0.418928 -0.176885
-0.659186 0.505412 1.629275 -0.762688 0.641743 -0.080142
-0.662814 0.501095 1.605044 -0.677358 0.724052 0.130009
-0.664269 0.506941 1.580034 -0.616230 0.713187 0.334086
-0.663160 0.521389 1.560945 -0.619404 0.515427 0.592151
-0.659785 0.540564 1.552893 -0.641499 0.249123 0.725516
-0.655046 0.559329 1.558035 -0.857387 -0.046205 0.512558
-0.650216 0.572655 1.574996 -0.933531 -0.213630 0.287851
-0.646588 0.576974 1.599227 -0.975738 -0.184851 0.117252
-0.645133 0.571126 1.624235 -0.988647 -0.138554 -0.057802
-0.052975 0.276686 1.644774 0.931730 -0.314554 -0.181310
-0.058795 0.263757 1.627817 0.994263 -0.065401 -0.084384
-0.059270 0.258169 1.603578 0.990600 0.052705 0.125980
-0.054275 0.261421 1.578552 0.939848 0.086886 0.330302
-0.045146 0.272639 1.559443 0.806207 -0.058321 0.588702
-0.034331 0.288821 1.551374 0.638264 -0.265938 0.722373
-0.024727 0.305628 1.556504 0.588366 -0.628163 0.509079
-0.018907 0.318556 1.573462 0.526383 -0.801263 0.284341
-0.018431 0.324144 1.597701 0.576067 -0.809442 0.113468
-0.023425 0.320892 1.622726 0.616718 -0.784722 -0.061708
-0.489901 0.061565 2.040337 -0.287484 -0.711203 0.641469
-0.318238 -0.007001 1.994288 0.244911 -0.857509 0.452376
-0.660540 0.131455 1.994255 -0.773980 -0.443129 0.452254
0.723928 -0.763273 -1.129826 0.459487 -0.566271 0.684225
0.511331 -0.575298 -0.838301 0.458419 -0.488327 0.742515
0.975718 -0.962498 -1.465549 0.549486 -0.634358 0.543718
1.119551 -1.061648 -1.749701 0.668630 -0.738792 0.084170
1.125208 -1.035657 -1.882484 0.529832 -0.370586 -0.762810
0.938866 -0.886667 -1.819508 -0.246925 0.140110 -0.958831
0.763902 -0.670843 -1.685086 0.123539 0.588580 -0.798914
0.492809 -0.395260 -1.520283 -0.023591 0.444319 -0.895535
0.391343 -0.314579 -1.496951 -0.030274 0.192206 -0.980865
0.209307 -0.145482 -1.477169 -0.254433 0.442122 -0.860103
-1.149012 0.401236 -1.473870 0.486160 0.144017 -0.861904
-1.397514 0.405429 -1.492607 0.150884 0.119266 -0.981323
-1.526677 0.417576 -1.515378 0.315256 0.261971 -0.912107
-1.941941 0.418252 -1.678514 0.270974 0.610950 -0.743797
-2.204107 0.378363 -1.811875 0.265145 -0.080782 -0.960784
-2.450039 0.403366 -1.873801 -0.691366 0.117588 -0.712851
-2.441229 0.371551 -1.741052 -0.976897 -0.145512 0.156468
-2.281727 0.348612 -1.457637 -0.850337 -0.040712 0.524613
-1.974829 0.322967 -1.123272 -0.727958 -0.044984 0.684133
-1.661906 0.299420 -0.833023 -0.641560 -0.061830 0.764550
3 0 1 2
3 3 2 4
3 5 6 7
3 8 9 10
3 11 12 9
3 13 14 15
3 16 17 14
3 18 19 20
3 21 22 23
3 24 25 21
3 26 27 24
3 28 29 26
3 30 31 28
3 32 33 30
3 34 35 32
3 36 37 34
3 38 39 36
3 40 41 38
3 42 43 44
3 44 45 46
3 46 47 48
3 48 49 50
3 50 51 52
3 52 53 54
3 54 55 56
3 56 57 58
3 58 59 60
3 60 61 7
3 62 63 64
3 64 65 66
3 66 67 68
3 68 69 70
3 70 71 72
3 72 73 74
3 75 76 77
3 78 79 75
3 80 81 78
3 82 83 80
3 74 84 82
3 85 86 87
3 88 89 85
3 90 91 88
3 92 93 90
3 94 95 92
3 96 97 94
3 98 99 96
3 100 101 102
3 102 103 104
3 104 105 106
3 106 107 108
3 108 109 110
3 110 111 112
3 112 113 114
3 115 116 117
3 115 117 118
3 118 119 115
3 120 117 116
3 120 118 117
3 120 119 118
3 121 122 116
3 121 123 122
3 121 124 123
3 121 125 124
3 116 122 126
3 127 125 121
3 127 128 125
3 116 129 121
3 129 130 121
3 130 131 121
3 131 132 121
3 133 129 116
3 134 132 121
3 132 128 134
3 135 136 137
3 137 136 138
3 139 140 135
3 136 135 141
3 141 135 140
3 138 142 139
3 143 138 136
3 142 138 143
3 144 145 146
3 144 146 147
3 148 144 147
3 149 148 147
3 149 147 150
3 146 145 151
3 151 145 152
3 151 152 153
3 151 153 150
3 153 149 150
3 154 155 148
3 156 157 158
3 159 157 156
3 160 161 162
3 163 160 162
3 163 162 164
3 163 164 165
3 159 163 165
3 157 161 160
3 166 161 157
3 167 166 157
3 159 167 157
3 159 165 167
3 164 168 169
3 170 146 160
3 170 160 171
3 172 146 151
3 172 151 173
3 147 174 175
3 147 175 150
3 174 176 177
3 174 177 175
3 176 178 179
3 176 179 177
3 178 180 181
3 178 181 179
3 180 182 183
3 180 183 181
3 182 163 159
3 182 159 183
3 160 184 185
3 160 185 157
3 157 185 186
3 157 186 158
3 183 159 156
3 183 156 187
3 181 183 187
3 181 187 188
3 179 181 188
3 179 188 189
3 177 179 189
3 177 189 190
3 175 177 190
3 175 190 191
3 150 175 191
3 150 191 192
3 151 150 192
3 151 192 193
3 173 151 193
3 173 193 194
3 170 195 147
3 170 147 146
3 195 196 174
3 195 174 147
3 196 197 176
3 196 176 174
3 197 198 178
3 197 178 176
3 198 199 180
3 198 180 178
3 199 200 182
3 199 182 180
3 200 201 163
3 200 163 182
3 201 171 160
3 201 160 163
3 201 195 170
3 201 170 171
3 196 195 201
3 196 201 200
3 197 196 200
3 197 200 199
3 198 197 199
3 202 203 204
3 204 203 205
3 203 202 206
3 207 205 203
3 208 209 186
3 158 186 209
3 158 209 210
3 156 158 210
3 156 210 211
3 187 156 211
3 187 211 212
3 213 209 214
3 213 214 215
3 216 213 215
3 216 215 217
3 212 216 217
3 212 217 218
3 219 214 208
3 219 208 220
3 221 219 220
3 221 220 222
3 218 221 222
3 218 222 223
3 224 208 225
3 224 225 226
3 224 226 227
3 224 227 228
3 228 227 229
3 228 229 223
3 230 225 206
3 230 206 231
3 232 233 234
3 232 234 229
3 230 231 233
3 230 233 232
3 187 229 234
3 187 223 229
3 187 218 223
3 187 212 218
3 206 208 186
3 206 225 208
3 194 235 236
3 237 235 194
3 237 194 193
3 238 237 193
3 238 193 192
3 239 238 192
3 239 192 191
3 240 241 235
3 240 235 242
3 243 240 242
3 243 242 244
3 245 243 244
3 245 244 239
3 246 236 241
3 246 241 247
3 248 246 247
3 248 247 249
3 250 248 249
3 250 249 245
3 251 252 236
3 251 236 253
3 254 255 251
3 254 251 253
3 250 256 255
3 250 255 254
3 257 258 252
3 257 252 259
3 256 260 261
3 256 261 262
3 262 261 257
3 262 257 259
3 260 256 191
3 256 250 191
3 250 245 191
3 245 239 191
3 194 236 258
3 236 252 258
3 204 205 263
3 204 263 264
3 265 204 264
3 265 264 266
3 267 265 266
3 267 266 268
3 140 267 268
3 140 268 141
3 269 142 143
3 269 143 270
3 271 269 270
3 271 270 272
3 273 271 272
3 273 272 274
3 275 273 274
3 275 274 276
3 277 278 271
3 277 271 273
3 278 260 269
3 278 269 271
3 260 279 142
3 260 142 269
3 279 280 139
3 279 139 142
3 280 281 140
3 280 140 139
3 281 234 267
3 281 267 140
3 234 282 265
3 234 265 267
3 282 202 204
3 282 204 265
3 188 187 234
3 188 234 281
3 189 188 281
3 189 281 280
3 190 189 280
3 190 280 279
3 191 190 279
3 191 279 260
3 235 241 236
3 214 209 208
3 273 283 277
3 275 283 273
3 258 277 283
3 283 275 284
3 285 286 287
3 288 289 290
3 291 288 290
3 291 290 292
3 293 294 295
3 296 297 298
3 299 296 298
3 299 298 300
3 301 302 303
3 301 303 304
3 305 301 304
3 276 274 306
3 276 306 307
3 274 272 308
3 274 308 306
3 272 270 309
3 272 309 308
3 270 143 310
3 270 310 309
3 143 136 311
3 143 311 310
3 136 141 312
3 136 312 311
3 141 268 313
3 141 313 312
3 268 266 314
3 268 314 313
3 266 264 315
3 266 315 314
3 264 263 316
3 264 316 315
3 307 306 317
3 307 317 318
3 306 308 319
3 306 319 317
3 308 309 320
3 308 320 319
3 309 310 321
3 309 321 320
3 310 311 322
3 310 322 321
3 311 312 323
3 311 323 322
3 312 313 324
3 312 324 323
3 313 314 325
3 313 325 324
3 314 315 326
3 314 326 325
3 315 316 327
3 315 327 326
3 326 327 328
3 326 328 329
3 325 326 329
3 325 329 330
3 324 325 330
3 324 330 331
3 323 324 331
3 323 331 332
3 322 323 332
3 322 332 333
3 321 322 333
3 321 333 334
3 320 321 334
3 320 334 335
3 319 320 335
3 319 335 336
3 317 319 336
3 317 336 337
3 318 317 337
3 318 337 338
3 339 340 129
3 339 129 133
3 340 341 130
3 340 130 129
3 341 342 131
3 341 131 130
3 342 343 132
3 342 132 131
3 343 302 128
3 343 128 132
3 302 344 125
3 302 125 128
3 344 345 124
3 344 124 125
3 345 346 123
3 345 123 124
3 346 347 122
3 346 122 123
3 347 348 126
3 347 126 122
3 329 328 348
3 329 348 347
3 330 329 347
3 330 347 346
3 331 330 346
3 331 346 345
3 332 331 345
3 332 345 344
3 333 332 344
3 333 344 302
3 334 333 302
3 334 302 343
3 335 334 343
3 335 343 342
3 336 335 342
3 336 342 341
3 337 336 341
3 337 341 340
3 338 337 340
3 338 340 339
3 116 126 349
3 116 349 120
3 350 133 116
3 115 350 116
3 351 352 353
3 351 353 354
3 352 172 173
3 352 173 353
3 184 355 356
3 184 356 185
3 355 357 358
3 355 358 356
3 357 359 360
3 357 360 358
3 359 351 354
3 359 354 360
3 360 354 361
3 360 361 362
3 358 360 362
3 358 362 363
3 356 358 363
3 356 363 364
3 185 356 364
3 185 364 186
3 353 173 194
3 353 194 365
3 354 353 365
3 354 365 361
3 366 367 352
3 366 352 351
3 367 40 172
3 367 172 352
3 7 368 355
3 7 355 184
3 368 369 357
3 368 357 355
3 369 370 359
3 369 359 357
3 370 366 351
3 370 351 359
3 367 366 370
3 367 370 369
3 367 369 368
3 371 372 373
3 206 373 372
3 205 372 371
3 374 375 376
3 374 376 377
3 186 364 373
3 186 373 206
3 378 377 376
3 378 376 379
3 371 378 379
3 371 379 380
3 205 371 380
3 205 380 263
3 381 275 276
3 381 276 382
3 374 381 382
3 374 382 375
3 383 384 381
3 383 381 374
3 373 385 378
3 373 378 371
3 385 386 377
3 385 377 378
3 386 383 374
3 386 374 377
3 362 361 383
3 362 383 386
3 363 362 386
3 363 386 385
3 364 363 385
3 364 385 373
3 365 194 258
3 365 258 384
3 361 365 384
3 361 384 383
3 384 387 381
3 381 387 275
3 387 384 258
3 98 172 23
3 114 42 184
3 375 382 388
3 375 388 389
3 382 276 307
3 382 307 388
3 263 380 390
3 263 390 316
3 380 379 391
3 380 391 390
3 379 376 392
3 379 392 391
3 376 375 389
3 376 389 392
3 389 388 393
3 389 393 394
3 388 307 318
3 388 318 393
3 316 390 395
3 316 395 327
3 390 391 396
3 390 396 395
3 391 392 397
3 391 397 396
3 392 389 394
3 392 394 397
3 397 394 398
3 397 398 399
3 396 397 399
3 396 399 400
3 395 396 400
3 395 400 401
3 327 395 401
3 327 401 328
3 393 318 338
3 393 338 402
3 394 393 402
3 394 402 398
3 403 404 350
3 403 350 115
3 404 339 133
3 404 133 350
3 348 405 349
3 348 349 126
3 405 406 120
3 405 120 349
3 406 407 119
3 406 119 120
3 407 403 115
3 407 115 119
3 399 398 403
3 399 403 407
3 400 399 407
3 400 407 406
3 401 400 406
3 401 406 405
3 328 401 405
3 328 405 348
3 402 338 339
3 402 339 404
3 398 402 404
3 398 404 403
3 127 408 128
3 127 409 408
3 127 410 409
3 127 411 410
3 127 412 411
3 127 413 412
3 127 414 413
3 127 121 414
3 128 408 134
3 408 409 134
3 409 410 134
3 410 411 134
3 411 412 134
3 412 413 134
3 413 414 134
3 414 121 134
3 415 139 135
3 416 415 135
3 417 416 135
3 418 417 135
3 419 418 135
3 420 419 135
3 421 420 135
3 422 421 135
3 423 422 135
3 424 423 135
3 135 137 424
3 138 139 415
3 138 415 416
3 138 416 417
3 138 417 418
3 138 418 419
3 138 419 420
3 138 420 421
3 138 421 422
3 138 422 423
3 138 423 424
3 424 137 138
3 155 425 144
3 425 426 144
3 426 427 145
3 427 428 145
3 428 429 152
3 429 430 152
3 430 431 153
3 431 432 153
3 432 433 149
3 433 434 149
3 434 154 148
3 144 426 145
3 145 428 152
3 152 430 153
3 153 432 149
3 149 434 148
3 155 144 148
3 162 435 168
3 162 436 435
3 161 437 436
3 161 438 437
3 166 439 438
3 166 440 439
3 167 441 440
3 167 442 441
3 165 443 442
3 165 444 443
3 164 169 444
3 161 436 162
3 166 438 161
3 167 440 166
3 165 442 167
3 164 444 165
3 164 162 168
3 160 445 446
3 146 445 160
3 146 447 445
3 146 172 447
3 160 446 184
3 40 367 368
3 40 368 7
3 445 447 446
3 40 7 184
3 40 184 172
3 184 446 447
3 184 447 172
3 233 231 202
3 233 202 282
3 233 282 234
3 227 232 229
3 226 225 230
3 226 230 232
3 226 232 227
3 222 220 224
3 222 224 228
3 220 208 224
3 217 221 218
3 217 215 219
3 217 219 221
3 215 214 219
3 210 209 213
3 222 228 223
3 211 216 212
3 211 210 213
3 211 213 216
3 231 206 202
3 278 277 257
3 278 257 261
3 260 278 261
3 256 262 255
3 259 252 251
3 255 262 259
3 255 259 251
3 254 253 246
3 254 246 248
3 253 236 246
3 245 249 243
3 249 247 240
3 249 240 243
3 247 241 240
3 242 235 237
3 250 254 248
3 239 244 238
3 244 242 237
3 244 237 238
3 277 258 257
3 448 449 372
3 449 206 372
3 450 448 372
3 451 450 372
3 452 451 372
3 453 452 372
3 454 453 372
3 455 454 372
3 456 455 372
3 457 456 372
3 372 205 207
3 372 207 457
3 457 207 203
3 203 456 457
3 203 455 456
3 203 454 455
3 203 453 454
3 203 452 453
3 203 451 452
3 203 450 451
3 203 448 450
3 203 449 448
3 203 206 449
3 430 429 428
3 430 428 427
3 430 427 426
3 430 426 425
3 430 425 155
3 430 155 154
3 430 154 434
3 430 434 433
3 430 433 432
3 430 432 431
3 441 442 443
3 441 443 444
3 441 444 169
3 441 169 168
3 441 168 435
3 441 435 436
3 441 436 437
3 441 437 438
3 441 438 439
3 441 439 440
3 458 284 387
3 284 275 387
3 387 459 458
3 387 460 459
3 387 461 460
3 387 462 461
3 387 463 462
3 387 464 463
3 387 465 464
3 387 466 465
3 387 467 466
3 387 258 467
3 283 284 458
3 458 459 283
3 459 460 283
3 460 461 283
3 461 462 283
3 462 463 283
3 463 464 283
3 464 465 283
3 465 466 283
3 466 467 283
3 467 258 283
