ply
format ascii 1.0
comment Created by Blender 2.79 (sub 0) - www.blender.org, source file: ''
element vertex 304
property float x
property float y
property float z
property float nx
property float ny
property float nz
element face 604
property list uchar uint vertex_indices
end_header
-3.404891 -3.309510 1.702343 -0.826624 -0.381878 0.413312
-2.220582 -3.309510 2.590575 -0.331950 -0.435621 0.836665
-3.229778 -3.030310 1.614793 -0.709281 0.609180 0.354625
-2.106378 -3.030310 2.457341 -0.278695 0.544023 0.791406
-1.048754 -3.309510 2.649084 -0.386731 -0.669576 0.634083
-0.994816 -3.030310 2.512842 -0.437727 0.507523 0.742149
-0.482907 -3.309510 3.523570 -0.398877 -0.398694 0.825770
-0.458073 -3.030310 3.342341 -0.416120 0.554643 0.720542
0.494457 -3.309510 3.523570 0.446944 -0.393353 0.803400
0.469027 -3.030310 3.342341 0.481704 0.540147 0.690023
0.905982 -3.309510 2.623366 0.414136 -0.712851 0.565935
0.859387 -3.030310 2.488447 0.495682 0.488815 0.717856
2.294603 -3.309510 2.590575 0.369060 -0.421644 0.828211
2.176592 -3.030310 2.457341 0.303751 0.551073 0.777184
3.256856 -3.309510 1.702343 0.838404 -0.395245 0.375256
3.089355 -3.030310 1.614793 0.736991 0.595660 0.319376
3.256859 -3.309510 -1.554513 0.867611 -0.418867 -0.267891
3.089359 -3.030310 -1.474566 0.777886 0.586627 -0.225166
2.590685 -3.309510 -2.590787 0.473586 -0.390088 -0.789636
2.457447 -3.030310 -2.457543 0.377331 0.576800 -0.724479
0.762220 -3.309510 -2.598098 0.411603 -0.728080 -0.548082
0.723019 -3.030310 -2.464477 0.505509 0.473403 -0.721305
0.419762 -3.309510 -3.397179 0.471816 -0.405194 -0.783044
0.398174 -3.030310 -3.222464 0.517258 0.515091 -0.683432
-0.607626 -3.309510 -3.454268 -0.451338 -0.387738 -0.803674
-0.576374 -3.030310 -3.276617 -0.487106 0.539048 -0.687124
-0.893009 -3.309510 -2.712253 -0.434523 -0.722953 -0.537095
-0.847082 -3.030310 -2.572760 -0.523667 0.493118 -0.694693
-2.442647 -3.309510 -2.664808 -0.407147 -0.407361 -0.817469
-2.317021 -3.030310 -2.527758 -0.328929 0.570055 -0.752861
-3.404891 -3.309510 -1.628534 -0.852168 -0.395550 -0.342509
-3.229778 -3.030310 -1.544777 -0.741203 0.606250 -0.288186
-3.026134 -2.769117 1.512976 -0.519028 0.814386 0.259499
-1.973567 -2.769117 2.302403 -0.193213 0.787347 0.585406
-0.932091 -2.769117 2.354402 -0.280343 0.837031 0.469802
-0.429191 -2.769117 3.131611 -0.336314 0.776177 0.533311
0.439453 -2.769117 3.131611 0.400891 0.759178 0.512711
0.805201 -2.769117 2.331547 0.324534 0.832698 0.448592
2.039353 -2.769117 2.302403 0.211066 0.786157 0.580828
2.894567 -2.769117 1.512976 0.539323 0.810144 0.229713
2.894571 -2.769117 -1.381592 0.558916 0.814325 -0.156255
2.302499 -2.769117 -2.302592 0.265297 0.790887 -0.551439
0.677430 -2.769117 -2.309088 0.340709 0.823664 -0.453291
0.373068 -2.769117 -3.019279 0.432752 0.743461 -0.509842
-0.540036 -2.769117 -3.070018 -0.409284 0.754265 -0.513352
-0.793670 -2.769117 -2.410545 -0.343883 0.835963 -0.427625
-2.170930 -2.769117 -2.368378 -0.228309 0.794763 -0.562304
-3.026134 -2.769117 -1.447378 -0.535966 0.819025 -0.204718
-2.771576 -2.697886 1.385705 -0.508255 0.822840 0.254128
-1.807552 -2.697886 2.108727 -0.213782 0.761254 0.612171
-0.853685 -2.697886 2.156351 -0.390728 0.632313 0.668905
-0.393087 -2.697886 2.868181 -0.309976 0.796808 0.518632
0.402489 -2.697886 2.868181 0.365703 0.794427 0.484878
0.737468 -2.697886 2.135419 0.441725 0.614185 0.653920
1.867805 -2.697886 2.108727 0.227546 0.775170 0.589312
2.651077 -2.697886 1.385705 0.540208 0.808283 0.234107
2.651080 -2.697886 -1.265371 0.597247 0.783044 -0.173437
2.108813 -2.697886 -2.108900 0.266671 0.810327 -0.521744
0.620447 -2.697886 -2.114850 0.448408 0.604663 -0.658223
0.341687 -2.697886 -2.765301 0.405774 0.773156 -0.487350
-0.494606 -2.697886 -2.811770 -0.368755 0.802484 -0.469039
-0.726907 -2.697886 -2.207771 -0.466475 0.614490 -0.636189
-1.988311 -2.697886 -2.169152 -0.243477 0.790796 -0.561541
-2.771576 -2.697886 -1.325624 -0.550188 0.807031 -0.214331
-2.695209 -2.484181 1.347523 -0.630116 0.709677 0.315043
-1.757747 -2.484181 2.050622 -0.233863 0.700461 0.674245
-0.830161 -2.484181 2.096936 -0.305277 0.801324 0.514420
-0.382255 -2.484181 2.789153 -0.368084 0.681356 0.632649
0.391399 -2.484181 2.789153 0.427229 0.667501 0.609821
0.717148 -2.484181 2.076579 0.344096 0.805353 0.482650
1.816339 -2.484181 2.050622 0.258461 0.695608 0.670309
2.578029 -2.484181 1.347523 0.646992 0.709342 0.279611
2.578032 -2.484181 -1.230506 0.666097 0.720969 -0.191015
2.050708 -2.484181 -2.050791 0.332072 0.691244 -0.641774
0.603350 -2.484181 -2.056576 0.356517 0.799799 -0.482864
0.332272 -2.484181 -2.689106 0.455794 0.658193 -0.599170
-0.480978 -2.484181 -2.734294 -0.433485 0.660939 -0.612537
-0.706878 -2.484181 -2.146939 -0.362926 0.809961 -0.460646
-1.933525 -2.484181 -2.109383 -0.282968 0.699942 -0.655690
-2.695209 -2.484181 -1.289097 -0.648183 0.718863 -0.251106
-1.702445 -2.279498 0.851173 -0.246559 0.961241 0.123264
-1.110291 -2.279498 1.295286 -0.113010 0.941069 0.318705
-0.524379 -2.279498 1.324542 -0.236183 0.896207 0.375469
-0.241454 -2.279498 1.761785 -0.164190 0.949278 0.268075
0.247229 -2.279498 1.761785 0.202429 0.945524 0.254860
0.452989 -2.279498 1.311685 0.292947 0.881375 0.370556
1.147301 -2.279498 1.295286 0.118290 0.944975 0.304971
1.628428 -2.279498 0.851173 0.265603 0.957183 0.114902
1.628428 -2.279498 -0.777258 0.295083 0.951537 -0.086245
1.295342 -2.279498 -1.295395 0.132542 0.955016 -0.265267
0.381110 -2.279498 -1.299049 0.313883 0.870846 -0.378246
0.209881 -2.279498 -1.698590 0.230567 0.936521 -0.264016
-0.303813 -2.279498 -1.727134 -0.208075 0.946318 -0.247230
-0.446506 -2.279498 -1.356125 -0.317057 0.880032 -0.353557
-1.221322 -2.279498 -1.332406 -0.122868 0.950743 -0.284524
-1.702445 -2.279498 -0.814265 -0.266274 0.958281 -0.103641
-0.975918 -1.884174 0.487931 -0.633717 0.705649 0.316843
-0.636468 -1.884174 0.742518 -0.248604 0.628193 0.737236
-0.300597 -1.884174 0.759288 -0.426984 0.516373 0.742302
-0.138412 -1.884174 1.009937 -0.395398 0.660054 0.638691
0.141723 -1.884174 1.009937 0.467422 0.648610 0.600635
0.259675 -1.884174 0.751917 0.475570 0.499252 0.724265
0.657686 -1.884174 0.742518 0.267403 0.642109 0.718406
0.933490 -1.884174 0.487931 0.666829 0.687918 0.286477
0.933490 -1.884174 -0.445559 0.721152 0.661580 -0.205420
0.742548 -1.884174 -0.742578 0.323985 0.681509 -0.656148
0.218470 -1.884174 -0.744676 0.479629 0.489120 -0.728477
0.120313 -1.884174 -0.973711 0.510147 0.619098 -0.597003
-0.174160 -1.884174 -0.990073 -0.473373 0.655507 -0.588366
-0.255957 -1.884174 -0.777394 -0.499832 0.501450 -0.706168
-0.700120 -1.884174 -0.763795 -0.289254 0.661794 -0.691610
-0.975918 -1.884174 -0.466777 -0.675741 0.689413 -0.260811
-0.887869 -1.534395 0.443908 -0.757378 -0.531907 0.378674
-0.579045 -1.534395 0.675527 -0.266884 -0.470321 0.841151
-0.273476 -1.534395 0.690784 -0.454878 -0.360546 0.814264
-0.125924 -1.534395 0.918816 -0.472274 -0.509323 0.719382
0.128936 -1.534395 0.918816 0.552141 -0.505997 0.662618
0.236246 -1.534395 0.684076 0.494644 -0.351177 0.794946
0.598346 -1.534395 0.675527 0.288675 -0.484664 0.825678
0.849267 -1.534395 0.443908 0.788873 -0.515610 0.334361
0.849270 -1.534395 -0.405359 0.843532 -0.484054 -0.232582
0.675554 -1.534395 -0.675580 0.360698 -0.522935 -0.772271
0.198759 -1.534395 -0.677487 0.492508 -0.347301 -0.797967
0.109458 -1.534395 -0.885860 0.592303 -0.483169 -0.644704
-0.158446 -1.534395 -0.900746 -0.557115 -0.518143 -0.648885
-0.232863 -1.534395 -0.707256 -0.516709 -0.350963 -0.780908
-0.636952 -1.534395 -0.694885 -0.317881 -0.498215 -0.806665
-0.887869 -1.534395 -0.424660 -0.804559 -0.508927 -0.305979
-1.142423 -1.415673 0.571178 -0.626423 -0.713767 0.313211
-0.745060 -1.415673 0.869200 -0.240730 -0.680105 0.692434
-0.351884 -1.415673 0.888832 -0.357585 -0.720695 0.593890
-0.162027 -1.415673 1.182243 -0.374767 -0.672750 0.637898
0.165902 -1.415673 1.182243 0.436995 -0.657643 0.613605
0.303979 -1.415673 0.880201 0.414838 -0.710288 0.568651
0.769895 -1.415673 0.869200 0.263436 -0.680197 0.684011
1.092754 -1.415673 0.571178 0.648427 -0.707938 0.279855
1.092754 -1.415673 -0.521576 0.675466 -0.711417 -0.193823
0.869236 -1.415673 -0.869273 0.330760 -0.688498 -0.645405
0.255743 -1.415673 -0.871725 0.432600 -0.696280 -0.572710
0.140840 -1.415673 -1.139835 0.468734 -0.640828 -0.607929
-0.203873 -1.415673 -1.158991 -0.443464 -0.652852 -0.614063
-0.299626 -1.415673 -0.910026 -0.440992 -0.713584 -0.544298
-0.819567 -1.415673 -0.894107 -0.285409 -0.691214 -0.663869
-1.142423 -1.415673 -0.546413 -0.648732 -0.718375 -0.251076
-1.244247 -1.225714 0.622085 -0.459243 -0.858089 0.229621
-0.811466 -1.225714 0.946672 -0.198798 -0.801935 0.563311
-0.383245 -1.225714 0.968052 -0.371624 -0.683798 0.627918
-0.176468 -1.225714 1.287615 -0.283639 -0.832026 0.476699
0.180689 -1.225714 1.287615 0.337046 -0.828242 0.447615
0.331073 -1.225714 0.958653 0.425703 -0.664174 0.614490
0.838514 -1.225714 0.946672 0.210791 -0.814173 0.540971
1.190150 -1.225714 0.622085 0.490036 -0.845332 0.212714
1.190150 -1.225714 -0.568064 0.543413 -0.824305 -0.158666
0.946712 -1.225714 -0.946748 0.243995 -0.845119 -0.475600
0.278537 -1.225714 -0.949419 0.435224 -0.653127 -0.619617
0.153393 -1.225714 -1.241427 0.376232 -0.808039 -0.453291
-0.222044 -1.225714 -1.262290 -0.341014 -0.834315 -0.433119
-0.326331 -1.225714 -0.991136 -0.451064 -0.664571 -0.595691
-0.892615 -1.225714 -0.973797 -0.223884 -0.828913 -0.512589
-1.244247 -1.225714 -0.595113 -0.497452 -0.845454 -0.194128
-2.262467 -0.940778 1.131164 -0.649129 -0.687918 0.324564
-1.475522 -0.940778 1.721376 -0.244514 -0.674459 0.696616
-0.696870 -0.940778 1.760252 -0.331309 -0.764153 0.553392
-0.320880 -0.940778 2.341326 -0.375042 -0.657918 0.653035
0.328555 -0.940778 2.341326 0.434095 -0.644368 0.629536
0.602003 -0.940778 1.743162 0.378338 -0.764336 0.522111
1.524708 -0.940778 1.721376 0.269692 -0.670553 0.691061
2.164102 -0.940778 1.131164 0.667074 -0.686605 0.289010
2.164105 -0.940778 -1.032938 0.689047 -0.696921 -0.198767
1.721448 -0.940778 -1.721515 0.344615 -0.668630 -0.658895
0.506478 -0.940778 -1.726373 0.393597 -0.755913 -0.523118
0.278922 -0.940778 -2.257344 0.463179 -0.633900 -0.619343
-0.403754 -0.940778 -2.295278 -0.440077 -0.638112 -0.631733
-0.593382 -0.940778 -1.802227 -0.400891 -0.768456 -0.498733
-1.623080 -0.940778 -1.770701 -0.294656 -0.676229 -0.675161
-2.262467 -0.940778 -1.082121 -0.668905 -0.696402 -0.259835
-2.720669 0.388927 1.360252 -0.894131 0.024751 0.447066
-1.774351 0.388927 2.069993 -0.359539 0.022889 0.932829
-0.838004 0.388927 2.116743 -0.511948 0.023713 0.858669
-0.385866 0.388927 2.815496 -0.447645 0.022889 0.893887
0.395096 0.388927 2.815496 0.502091 0.022431 0.864498
0.723922 0.388927 2.096194 0.573656 0.022797 0.818751
1.833495 0.388927 2.069993 0.397107 0.023011 0.917478
2.602381 0.388927 1.360252 0.913419 0.024384 0.406201
2.602384 0.388927 -1.242129 0.956420 0.024567 -0.290872
2.070079 0.388927 -2.070162 0.504562 0.023621 -0.863033
0.609049 0.388927 -2.076003 0.580157 0.021912 -0.814173
0.335409 0.388927 -2.714507 0.533403 0.021607 -0.845576
-0.485522 0.388927 -2.760122 -0.505203 0.022187 -0.862697
-0.713557 0.388927 -2.167216 -0.607868 0.023041 -0.793695
-1.951790 0.388927 -2.129306 -0.436110 0.023682 -0.899564
-2.720669 0.388927 -1.301276 -0.928434 0.024995 -0.370647
-2.644299 0.578883 1.322070 -0.893368 0.048402 0.446669
-1.724543 0.578883 2.011888 -0.316538 0.039338 0.947752
-0.814480 0.578883 2.057327 -0.490036 0.031556 0.871120
-0.375034 0.578883 2.736469 -0.515793 0.041932 0.855647
0.384006 0.578883 2.736469 0.589648 0.040498 0.806635
0.703602 0.578883 2.037354 0.532853 0.030244 0.845637
1.782029 0.578883 2.011888 0.348064 0.040590 0.936583
2.529333 0.578883 1.322070 0.917966 0.046236 0.393933
2.529336 0.578883 -1.207263 0.961608 0.043672 -0.270852
2.011974 0.578883 -2.012053 0.448469 0.044649 -0.892666
0.591952 0.578883 -2.017729 0.531114 0.029389 -0.846767
0.325994 0.578883 -2.638312 0.623127 0.037507 -0.781182
-0.471893 0.578883 -2.682646 -0.593005 0.041108 -0.804132
-0.693528 0.578883 -2.106384 -0.557024 0.030610 -0.829920
-1.897005 0.578883 -2.069540 -0.385113 0.042787 -0.921873
-2.644299 0.578883 -1.264749 -0.932310 0.046815 -0.358562
-3.357068 2.858375 1.678425 -0.623737 -0.716697 0.311869
-2.189387 2.858375 2.554181 -0.246559 -0.639149 0.728446
-1.034020 2.858375 2.611866 -0.423719 -0.530778 0.733970
-0.476123 2.858375 3.474060 -0.390271 -0.669271 0.632221
0.487511 2.858375 3.474060 0.461959 -0.656911 0.595843
0.893253 2.858375 2.586512 0.473434 -0.512864 0.716086
2.262365 2.858375 2.554181 0.265114 -0.652669 0.709708
3.211099 2.858375 1.678425 0.656789 -0.699210 0.282327
3.211105 2.858375 -1.532674 0.710166 -0.674215 -0.202612
2.554287 2.858375 -2.554389 0.320475 -0.691275 -0.647603
0.751510 2.858375 -2.561598 0.478347 -0.501968 -0.720511
0.413864 2.858375 -3.349456 0.504593 -0.627094 -0.593371
-0.599091 2.858375 -3.405751 -0.468184 -0.663015 -0.584124
-0.880462 2.858375 -2.674147 -0.498001 -0.515336 -0.697409
-2.408331 2.858375 -2.627371 -0.286203 -0.672628 -0.682333
-3.357068 2.858375 -1.605655 -0.664663 -0.701651 -0.256661
-3.942521 3.190789 1.971141 -0.893551 0.043550 0.446760
-2.571212 3.190789 2.999628 -0.384381 0.051485 0.921720
-1.214352 3.190789 3.067374 -0.546464 0.088931 0.832728
-0.559158 3.190789 4.079931 -0.413862 0.046419 0.909116
0.572532 3.190789 4.079931 0.459975 0.045839 0.886715
1.049035 3.190789 3.037594 0.646321 0.096438 0.756920
2.656921 3.190789 2.999628 0.423139 0.049532 0.904691
3.771121 3.190789 1.971141 0.910245 0.045442 0.411542
3.771121 3.190789 -1.799970 0.952239 0.048616 -0.301431
2.999753 3.190789 -2.999873 0.528550 0.045015 -0.847682
0.882574 3.190789 -3.008338 0.670339 0.098117 -0.735527
0.486041 3.190789 -3.933585 0.486312 0.047761 -0.872463
-0.703569 3.190789 -3.999709 -0.464278 0.045198 -0.884518
-1.034014 3.190789 -3.140517 -0.698050 0.097598 -0.709311
-2.828341 3.190789 -3.085582 -0.460738 0.047304 -0.886258
-3.942521 3.190789 -1.885680 -0.925535 0.045289 -0.375927
-3.662503 3.309510 1.831142 -0.113437 0.991913 0.056703
-2.388593 3.309510 2.786578 -0.011963 0.992645 0.120426
-1.128103 3.309510 2.849515 0.063143 0.995911 -0.064455
-0.519444 3.309510 3.790151 -0.131962 0.984069 0.118839
0.531868 3.309510 3.790151 0.187139 0.974944 0.120060
0.974528 3.309510 2.821851 -0.110355 0.991211 -0.072848
2.468213 3.309510 2.786578 0.016602 0.990722 0.134678
3.503282 3.309510 1.831142 0.113804 0.992615 0.041505
3.503282 3.309510 -1.672127 0.097140 0.995117 -0.016785
2.786697 3.309510 -2.786807 0.035340 0.987213 -0.155309
0.819888 3.309510 -2.794670 -0.132969 0.988159 0.076144
0.451520 3.309510 -3.654196 0.211005 0.970458 -0.116855
-0.653599 3.309510 -3.715621 -0.201941 0.971374 -0.125004
-0.960572 3.309510 -2.917463 0.131932 0.988800 0.069521
-2.627457 3.309510 -2.866427 -0.022858 0.990448 -0.135777
-3.662503 3.309510 -1.751750 -0.105319 0.993835 -0.034028
-2.898857 3.048344 1.449341 0.538285 0.798608 -0.269143
-1.890558 3.048344 2.205564 0.222144 0.732322 -0.643666
-0.892889 3.048344 2.255378 0.399609 0.607135 -0.686789
-0.411137 3.048344 2.999896 0.332743 0.767022 -0.548540
0.420970 3.048344 2.999896 -0.394208 0.761773 -0.514054
0.771334 3.048344 2.233483 -0.450087 0.589038 -0.671133
1.953578 3.048344 2.205564 -0.237037 0.746361 -0.621876
2.772824 3.048344 1.449341 -0.570788 0.783166 -0.246620
2.772824 3.048344 -1.323483 -0.627155 0.757530 0.181005
2.205656 3.048344 -2.205746 -0.280129 0.782891 0.555467
0.648939 3.048344 -2.211968 -0.456221 0.579150 0.675558
0.357377 3.048344 -2.892290 -0.435987 0.737632 0.515519
-0.517320 3.048344 -2.940894 0.398572 0.769463 0.499008
-0.760291 3.048344 -2.309158 0.474715 0.589892 0.653157
-2.079620 3.048344 -2.268765 0.254280 0.763207 0.593951
-2.898857 3.048344 -1.386503 0.580187 0.782647 0.225318
-1.727899 -0.394649 0.863898 0.636250 0.702811 -0.318125
-1.126892 -0.394649 1.314653 0.236549 0.694327 -0.679617
-0.532219 -0.394649 1.344346 0.308603 0.796686 -0.519608
-0.245064 -0.394649 1.788128 0.369671 0.675039 -0.638447
0.250925 -0.394649 1.788128 -0.428571 0.661397 -0.615497
0.459764 -0.394649 1.331297 -0.347911 0.800867 -0.487350
1.164455 -0.394649 1.314653 -0.261483 0.689352 -0.675558
1.652776 -0.394649 0.863898 -0.653035 0.702628 -0.282479
1.652779 -0.394649 -0.788878 -0.672414 0.714499 0.193152
1.314710 -0.394649 -1.314763 -0.336009 0.684683 0.646718
0.386809 -0.394649 -1.318473 -0.360454 0.795282 0.487411
0.213019 -0.394649 -1.723987 -0.457045 0.652333 0.604572
-0.308356 -0.394649 -1.752958 0.434706 0.654805 0.618213
-0.453181 -0.394649 -1.376402 0.367077 0.805475 0.465163
-1.239584 -0.394649 -1.352326 0.286386 0.693533 0.661000
-1.727899 -0.394649 -0.826441 0.654530 0.712119 0.253822
-0.022381 -0.750819 0.011190 0.106449 0.992889 -0.053224
-0.014596 -0.750819 0.017028 0.034211 0.990875 -0.130161
-0.006894 -0.750819 0.017413 0.040803 0.996277 -0.075777
-0.003174 -0.750819 0.023161 0.095737 0.988556 -0.116428
0.003250 -0.750819 0.023161 -0.130894 0.984710 -0.114750
0.005955 -0.750819 0.017244 -0.041414 0.996582 -0.071139
0.015083 -0.750819 0.017028 -0.037172 0.990539 -0.132054
0.021408 -0.750819 0.011190 -0.111820 0.992676 -0.045320
0.021408 -0.750819 -0.010218 -0.113163 0.993133 0.028596
0.017029 -0.750819 -0.017029 -0.047426 0.990448 0.129429
0.005010 -0.750819 -0.017077 -0.041078 0.996521 0.072268
0.002759 -0.750819 -0.022330 -0.150426 0.981597 0.117496
-0.003994 -0.750819 -0.022705 0.139805 0.983490 0.114628
-0.005870 -0.750819 -0.017828 0.040956 0.996887 0.067019
-0.016056 -0.750819 -0.017516 0.040437 0.991119 0.126530
-0.022381 -0.750819 -0.010704 0.108371 0.993316 0.039460
3 0 1 2
3 2 1 3
3 1 4 3
3 3 4 5
3 4 6 5
3 5 6 7
3 6 8 7
3 7 8 9
3 8 10 9
3 9 10 11
3 10 12 11
3 11 12 13
3 12 14 13
3 13 14 15
3 14 16 15
3 15 16 17
3 16 18 17
3 17 18 19
3 18 20 19
3 19 20 21
3 20 22 21
3 21 22 23
3 22 24 23
3 23 24 25
3 24 26 25
3 25 26 27
3 26 28 27
3 27 28 29
3 28 30 29
3 29 30 31
3 30 0 31
3 31 0 2
3 2 3 32
3 32 3 33
3 3 5 33
3 33 5 34
3 5 7 34
3 34 7 35
3 7 9 35
3 35 9 36
3 9 11 36
3 36 11 37
3 11 13 37
3 37 13 38
3 13 15 38
3 38 15 39
3 15 17 39
3 39 17 40
3 17 19 40
3 40 19 41
3 19 21 41
3 41 21 42
3 21 23 42
3 42 23 43
3 23 25 43
3 43 25 44
3 25 27 44
3 44 27 45
3 27 29 45
3 45 29 46
3 29 31 46
3 46 31 47
3 31 2 47
3 47 2 32
3 32 33 48
3 48 33 49
3 33 34 49
3 49 34 50
3 34 35 50
3 50 35 51
3 35 36 51
3 51 36 52
3 36 37 52
3 52 37 53
3 37 38 53
3 53 38 54
3 38 39 54
3 54 39 55
3 39 40 55
3 55 40 56
3 40 41 56
3 56 41 57
3 41 42 57
3 57 42 58
3 42 43 58
3 58 43 59
3 43 44 59
3 59 44 60
3 44 45 60
3 60 45 61
3 45 46 61
3 61 46 62
3 46 47 62
3 62 47 63
3 47 32 63
3 63 32 48
3 48 49 64
3 64 49 65
3 49 50 65
3 65 50 66
3 50 51 66
3 66 51 67
3 51 52 67
3 67 52 68
3 52 53 68
3 68 53 69
3 53 54 69
3 69 54 70
3 54 55 70
3 70 55 71
3 55 56 71
3 71 56 72
3 56 57 72
3 72 57 73
3 57 58 73
3 73 58 74
3 58 59 74
3 74 59 75
3 59 60 75
3 75 60 76
3 60 61 76
3 76 61 77
3 61 62 77
3 77 62 78
3 62 63 78
3 78 63 79
3 63 48 79
3 79 48 64
3 64 65 80
3 80 65 81
3 65 66 81
3 81 66 82
3 66 67 82
3 82 67 83
3 67 68 83
3 83 68 84
3 68 69 84
3 84 69 85
3 69 70 85
3 85 70 86
3 70 71 86
3 86 71 87
3 71 72 87
3 87 72 88
3 72 73 88
3 88 73 89
3 73 74 89
3 89 74 90
3 74 75 90
3 90 75 91
3 75 76 91
3 91 76 92
3 76 77 92
3 92 77 93
3 77 78 93
3 93 78 94
3 78 79 94
3 94 79 95
3 79 64 95
3 95 64 80
3 80 81 96
3 96 81 97
3 81 82 97
3 97 82 98
3 82 83 98
3 98 83 99
3 83 84 99
3 99 84 100
3 84 85 100
3 100 85 101
3 85 86 101
3 101 86 102
3 86 87 102
3 102 87 103
3 87 88 103
3 103 88 104
3 88 89 104
3 104 89 105
3 89 90 105
3 105 90 106
3 90 91 106
3 106 91 107
3 91 92 107
3 107 92 108
3 92 93 108
3 108 93 109
3 93 94 109
3 109 94 110
3 94 95 110
3 110 95 111
3 95 80 111
3 111 80 96
3 96 97 112
3 112 97 113
3 97 98 113
3 113 98 114
3 98 99 114
3 114 99 115
3 99 100 115
3 115 100 116
3 100 101 116
3 116 101 117
3 101 102 117
3 117 102 118
3 102 103 118
3 118 103 119
3 103 104 119
3 119 104 120
3 104 105 120
3 120 105 121
3 105 106 121
3 121 106 122
3 106 107 122
3 122 107 123
3 107 108 123
3 123 108 124
3 108 109 124
3 124 109 125
3 109 110 125
3 125 110 126
3 110 111 126
3 126 111 127
3 111 96 127
3 127 96 112
3 112 113 128
3 128 113 129
3 113 114 129
3 129 114 130
3 114 115 130
3 130 115 131
3 115 116 131
3 131 116 132
3 116 117 132
3 132 117 133
3 117 118 133
3 133 118 134
3 118 119 134
3 134 119 135
3 119 120 135
3 135 120 136
3 120 121 136
3 136 121 137
3 121 122 137
3 137 122 138
3 122 123 138
3 138 123 139
3 123 124 139
3 139 124 140
3 124 125 140
3 140 125 141
3 125 126 141
3 141 126 142
3 126 127 142
3 142 127 143
3 127 112 143
3 143 112 128
3 128 129 144
3 144 129 145
3 129 130 145
3 145 130 146
3 130 131 146
3 146 131 147
3 131 132 147
3 147 132 148
3 132 133 148
3 148 133 149
3 133 134 149
3 149 134 150
3 134 135 150
3 150 135 151
3 135 136 151
3 151 136 152
3 136 137 152
3 152 137 153
3 137 138 153
3 153 138 154
3 138 139 154
3 154 139 155
3 139 140 155
3 155 140 156
3 140 141 156
3 156 141 157
3 141 142 157
3 157 142 158
3 142 143 158
3 158 143 159
3 143 128 159
3 159 128 144
3 144 145 160
3 160 145 161
3 145 146 161
3 161 146 162
3 146 147 162
3 162 147 163
3 147 148 163
3 163 148 164
3 148 149 164
3 164 149 165
3 149 150 165
3 165 150 166
3 150 151 166
3 166 151 167
3 151 152 167
3 167 152 168
3 152 153 168
3 168 153 169
3 153 154 169
3 169 154 170
3 154 155 170
3 170 155 171
3 155 156 171
3 171 156 172
3 156 157 172
3 172 157 173
3 157 158 173
3 173 158 174
3 158 159 174
3 174 159 175
3 159 144 175
3 175 144 160
3 160 161 176
3 176 161 177
3 161 162 177
3 177 162 178
3 162 163 178
3 178 163 179
3 163 164 179
3 179 164 180
3 164 165 180
3 180 165 181
3 165 166 181
3 181 166 182
3 166 167 182
3 182 167 183
3 167 168 183
3 183 168 184
3 168 169 184
3 184 169 185
3 169 170 185
3 185 170 186
3 170 171 186
3 186 171 187
3 171 172 187
3 187 172 188
3 172 173 188
3 188 173 189
3 173 174 189
3 189 174 190
3 174 175 190
3 190 175 191
3 175 160 191
3 191 160 176
3 176 177 192
3 192 177 193
3 177 178 193
3 193 178 194
3 178 179 194
3 194 179 195
3 179 180 195
3 195 180 196
3 180 181 196
3 196 181 197
3 181 182 197
3 197 182 198
3 182 183 198
3 198 183 199
3 183 184 199
3 199 184 200
3 184 185 200
3 200 185 201
3 185 186 201
3 201 186 202
3 186 187 202
3 202 187 203
3 187 188 203
3 203 188 204
3 188 189 204
3 204 189 205
3 189 190 205
3 205 190 206
3 190 191 206
3 206 191 207
3 191 176 207
3 207 176 192
3 192 193 208
3 208 193 209
3 193 194 209
3 209 194 210
3 194 195 210
3 210 195 211
3 195 196 211
3 211 196 212
3 196 197 212
3 212 197 213
3 197 198 213
3 213 198 214
3 198 199 214
3 214 199 215
3 199 200 215
3 215 200 216
3 200 201 216
3 216 201 217
3 201 202 217
3 217 202 218
3 202 203 218
3 218 203 219
3 203 204 219
3 219 204 220
3 204 205 220
3 220 205 221
3 205 206 221
3 221 206 222
3 206 207 222
3 222 207 223
3 207 192 223
3 223 192 208
3 208 209 224
3 224 209 225
3 209 210 225
3 225 210 226
3 210 211 226
3 226 211 227
3 211 212 227
3 227 212 228
3 212 213 228
3 228 213 229
3 213 214 229
3 229 214 230
3 214 215 230
3 230 215 231
3 215 216 231
3 231 216 232
3 216 217 232
3 232 217 233
3 217 218 233
3 233 218 234
3 218 219 234
3 234 219 235
3 219 220 235
3 235 220 236
3 220 221 236
3 236 221 237
3 221 222 237
3 237 222 238
3 222 223 238
3 238 223 239
3 223 208 239
3 239 208 224
3 224 225 240
3 240 225 241
3 225 226 241
3 241 226 242
3 226 227 242
3 242 227 243
3 227 228 243
3 243 228 244
3 228 229 244
3 244 229 245
3 229 230 245
3 245 230 246
3 230 231 246
3 246 231 247
3 231 232 247
3 247 232 248
3 232 233 248
3 248 233 249
3 233 234 249
3 249 234 250
3 234 235 250
3 250 235 251
3 235 236 251
3 251 236 252
3 236 237 252
3 252 237 253
3 237 238 253
3 253 238 254
3 238 239 254
3 254 239 255
3 239 224 255
3 255 224 240
3 240 241 256
3 256 241 257
3 241 242 257
3 257 242 258
3 242 243 258
3 258 243 259
3 243 244 259
3 259 244 260
3 244 245 260
3 260 245 261
3 245 246 261
3 261 246 262
3 246 247 262
3 262 247 263
3 247 248 263
3 263 248 264
3 248 249 264
3 264 249 265
3 249 250 265
3 265 250 266
3 250 251 266
3 266 251 267
3 251 252 267
3 267 252 268
3 252 253 268
3 268 253 269
3 253 254 269
3 269 254 270
3 254 255 270
3 270 255 271
3 255 240 271
3 271 240 256
3 256 257 272
3 272 257 273
3 257 258 273
3 273 258 274
3 258 259 274
3 274 259 275
3 259 260 275
3 275 260 276
3 260 261 276
3 276 261 277
3 261 262 277
3 277 262 278
3 262 263 278
3 278 263 279
3 263 264 279
3 279 264 280
3 264 265 280
3 280 265 281
3 265 266 281
3 281 266 282
3 266 267 282
3 282 267 283
3 267 268 283
3 283 268 284
3 268 269 284
3 284 269 285
3 269 270 285
3 285 270 286
3 270 271 286
3 286 271 287
3 271 256 287
3 287 256 272
3 272 273 288
3 288 273 289
3 273 274 289
3 289 274 290
3 274 275 290
3 290 275 291
3 275 276 291
3 291 276 292
3 276 277 292
3 292 277 293
3 277 278 293
3 293 278 294
3 278 279 294
3 294 279 295
3 279 280 295
3 295 280 296
3 280 281 296
3 296 281 297
3 281 282 297
3 297 282 298
3 282 283 298
3 298 283 299
3 283 284 299
3 299 284 300
3 284 285 300
3 300 285 301
3 285 286 301
3 301 286 302
3 286 287 302
3 302 287 303
3 287 272 303
3 303 272 288
3 26 22 20
3 30 28 26
3 30 20 18
3 18 0 30
3 30 26 20
3 26 24 22
3 18 16 14
3 18 14 12
3 18 12 10
3 18 10 8
3 18 8 6
3 18 6 4
3 18 4 1
3 1 0 18
3 298 299 301
3 301 302 303
3 297 298 303
3 303 288 297
3 298 301 303
3 299 300 301
3 295 296 297
3 294 295 297
3 293 294 297
3 292 293 297
3 291 292 297
3 290 291 297
3 289 290 297
3 288 289 297
